<?xml version="1.0" encoding="UTF-8"?>
<svg width="120px" height="120px" viewBox="0 0 120 120" version="1.1" xmlns="http://www.w3.org/2000/svg" xmlns:xlink="http://www.w3.org/1999/xlink">
    <!-- Generator: Sketch 63.1 (92452) - https://sketch.com -->
    <title>icon-120x120</title>
    <desc>Created with Sketch.</desc>
    <defs>
        <rect id="path-1" x="23" y="0" width="74.2268041" height="74.2268041"></rect>
    </defs>
    <g id="Page-1" stroke="none" stroke-width="1" fill="none" fill-rule="evenodd">
        <g id="Artboard" transform="translate(-542.000000, -440.000000)">
            <g id="icon-120x120" transform="translate(542.000000, 440.000000)">
                <rect id="icon" fill="#F4A45F" fill-rule="nonzero" x="0" y="0" width="120" height="120"></rect>
                <g id="icon-grp" transform="translate(0.000000, 22.500000)">
                    <mask id="mask-2" fill="white">
                        <use xlink:href="#path-1"></use>
                    </mask>
                    <use id="Mask" fill="#D8BFD8" fill-rule="nonzero" xlink:href="#path-1"></use>
                    <path d="M58.5518113,23.9531344 L58.5518113,16.0497372 L60.0209174,16.0497372 C61.0944949,16.0497372 61.9608908,15.8649456 62.6201051,15.4953623 C63.2793194,15.1257789 63.8066908,14.6093099 64.2022194,13.9459553 C64.5412439,13.3963185 64.7625516,12.8087758 64.8661424,12.1833271 C64.9697332,11.5578784 65.0215286,10.7902823 65.0215286,9.88053872 C65.0215286,8.66754731 64.9273551,7.70568303 64.7390082,6.99494587 C64.5506613,6.28420871 64.2116368,5.66349826 63.7219347,5.13281452 C63.2322327,4.60213078 62.6860266,4.23254745 62.0833164,4.02406456 C61.4806062,3.81558166 60.7837225,3.71134021 59.9926653,3.71134021 L59.9926653,3.71134021 L55.6701031,3.71134021 L55.6701031,23.9531344 L58.5518113,23.9531344 Z M59.9361613,13.3205066 L58.5518113,13.3205066 L58.5518113,6.44057089 L60.0491694,6.44057089 C60.6142102,6.44057089 61.0474082,6.52585935 61.3487633,6.69643626 C61.6501184,6.86701318 61.8761347,7.11340206 62.0268123,7.43560291 C62.1774898,7.75780375 62.2622459,8.13212532 62.2810806,8.55856761 C62.2999153,8.98500991 62.3093327,9.43514344 62.3093327,9.90896821 C62.3093327,10.420699 62.2952067,10.8850472 62.2669546,11.302013 C62.2387026,11.7189788 62.1492378,12.0696092 61.9985602,12.353904 C61.8478827,12.6571519 61.612449,12.8940643 61.2922592,13.0646412 C60.9720694,13.2352181 60.5200368,13.3205066 59.9361613,13.3205066 L59.9361613,13.3205066 Z M70.7001888,24.1237113 C71.6042541,24.1237113 72.3717679,23.9341814 73.0027301,23.5551216 C73.6336924,23.1760618 74.1186857,22.6738075 74.4577102,22.0483588 C74.6648919,21.669299 74.8061521,21.2333802 74.8814908,20.7406025 C74.9568296,20.2478247 74.994499,19.7076645 74.994499,19.1201218 L74.994499,19.1201218 L74.994499,14.3723976 C74.994499,13.7848548 74.9568296,13.2446946 74.8814908,12.7519168 C74.8061521,12.2591391 74.6648919,11.8232203 74.4577102,11.4441605 C74.1186857,10.8187118 73.6336924,10.3164575 73.0027301,9.9373977 C72.3717679,9.55833788 71.6042541,9.36880797 70.7001888,9.36880797 C69.7961235,9.36880797 69.0286097,9.55833788 68.3976475,9.9373977 C67.7666852,10.3164575 67.2816919,10.8187118 66.9426674,11.4441605 C66.7354857,11.8232203 66.5942255,12.2591391 66.5188868,12.7519168 C66.443548,13.2446946 66.4058786,13.7848548 66.4058786,14.3723976 L66.4058786,14.3723976 L66.4058786,19.1201218 C66.4058786,19.7076645 66.443548,20.2478247 66.5188868,20.7406025 C66.5942255,21.2333802 66.7354857,21.669299 66.9426674,22.0483588 C67.2816919,22.6738075 67.7666852,23.1760618 68.3976475,23.5551216 C69.0286097,23.9341814 69.7961235,24.1237113 70.7001888,24.1237113 Z M70.7001888,21.2239037 C70.2669908,21.2239037 69.9232577,21.0864946 69.6689893,20.8116762 C69.4147209,20.5368578 69.2875868,20.1246303 69.2875868,19.5749935 L69.2875868,19.5749935 L69.2875868,13.9175258 C69.2875868,13.367889 69.4147209,12.9556615 69.6689893,12.6808431 C69.9232577,12.4060248 70.2669908,12.2686156 70.7001888,12.2686156 C71.1333868,12.2686156 71.4771199,12.4060248 71.7313883,12.6808431 C71.9856567,12.9556615 72.1127908,13.367889 72.1127908,13.9175258 L72.1127908,13.9175258 L72.1127908,19.5749935 C72.1127908,20.1246303 71.9856567,20.5368578 71.7313883,20.8116762 C71.4771199,21.0864946 71.1333868,21.2239037 70.7001888,21.2239037 Z M80.8991755,24.1237113 C81.5207204,24.1237113 82.0951786,24.0099934 82.62255,23.7825575 C83.1499214,23.5551216 83.6019541,23.2423973 83.978648,22.8443845 C84.3553419,22.4463717 84.6519883,21.9867616 84.8685873,21.4655544 C85.0851862,20.9443471 85.1934857,20.3804956 85.1934857,19.7739999 C85.1934857,18.9211154 84.9910128,18.1345662 84.5860669,17.4143526 C84.1811209,16.6941389 83.4418592,16.1255492 82.3682817,15.7085834 L82.3682817,15.7085834 L80.6731592,15.0262757 C80.1269531,14.8177928 79.7879286,14.5856187 79.6560857,14.3297533 C79.5242429,14.0738879 79.4583214,13.8132843 79.4583214,13.5479425 C79.4583214,13.1688826 79.580747,12.832467 79.825598,12.5386957 C80.070449,12.2449243 80.4188908,12.0980387 80.8709235,12.0980387 C81.2476174,12.0980387 81.5819332,12.2212331 81.8738709,12.467622 C82.1658087,12.7140109 82.3211949,13.0835942 82.3400296,13.5763719 L82.3400296,13.5763719 L85.0522255,13.5763719 C85.0522255,12.9888292 84.9486347,12.4344542 84.7414531,11.913247 C84.5342714,11.3920397 84.251751,10.9419062 83.8938919,10.5628464 C83.5360327,10.1837866 83.1075434,9.89001522 82.608424,9.68153232 C82.1093046,9.47304942 81.5678072,9.36880797 80.9839317,9.36880797 C80.4000561,9.36880797 79.85385,9.46831117 79.3453133,9.66731758 C78.8367766,9.86632398 78.3941612,10.1553571 78.0174674,10.5344169 C77.6219388,10.9134767 77.3111663,11.3636103 77.08515,11.8848175 C76.8591337,12.4060248 76.7461255,12.9698762 76.7461255,13.5763719 C76.7461255,14.5429745 77.0051026,15.3626913 77.5230567,16.0355225 C78.0410107,16.7083537 78.7520204,17.2153462 79.6560857,17.5565 L79.6560857,17.5565 L81.0404357,18.0682308 C81.5866419,18.2767137 81.9633357,18.5231025 82.1705174,18.8073974 C82.377699,19.0916923 82.4812898,19.4328461 82.4812898,19.8308589 C82.4812898,20.3236367 82.3164862,20.7074347 81.9868791,20.9822531 C81.657272,21.2570715 81.2852868,21.3944807 80.8709235,21.3944807 C80.3247174,21.3944807 79.9433148,21.2239037 79.7267158,20.8827499 C79.5101169,20.5415961 79.3735653,20.1720128 79.3170612,19.7739999 L79.3170612,19.7739999 L76.6048653,19.7739999 C76.6237,20.4942136 76.7555429,21.1244005 77.0003939,21.6645608 C77.2452449,22.204721 77.5654347,22.6548546 77.9609633,23.0149614 C78.7520204,23.754128 79.7314245,24.1237113 80.8991755,24.1237113 Z M91.7197072,23.9531344 L91.7197072,21.2239037 C91.3995174,21.2239037 91.131123,21.2144272 90.914524,21.1954743 C90.697925,21.1765213 90.5142867,21.1196623 90.3636092,21.0248973 C90.2129316,20.9301324 90.1046322,20.787985 90.0387107,20.598455 C89.9727893,20.4089251 89.9398286,20.1435833 89.9398286,19.8024294 L89.9398286,19.8024294 L89.9398286,11.8137438 L91.7197072,11.8137438 L91.7197072,9.53938489 L89.9398286,9.53938489 L89.9398286,5.16124401 L87.0581204,5.16124401 L87.0581204,9.53938489 L85.6172663,9.53938489 L85.6172663,11.8137438 L87.0581204,11.8137438 L87.0581204,20.5700256 C87.0581204,20.9490854 87.1193332,21.3423599 87.2417587,21.7498492 C87.3641842,22.1573385 87.5572398,22.5221836 87.8209255,22.8443845 C88.0846112,23.1665853 88.4377618,23.4319272 88.8803771,23.6404101 C89.3229924,23.848893 89.8739072,23.9531344 90.5331214,23.9531344 L90.5331214,23.9531344 L91.7197072,23.9531344 Z M95.788001,24.1237113 C96.4472153,24.1237113 96.9887128,23.9768257 97.4124934,23.6830543 C97.836274,23.3892829 98.1988418,23.0149614 98.5001969,22.5600896 L98.5001969,22.5600896 L98.556701,22.5600896 L98.556701,23.9531344 L101.438409,23.9531344 L101.438409,9.53938489 L98.556701,9.53938489 L98.556701,19.2338397 C98.556701,19.8782414 98.4531102,20.3710192 98.2459286,20.712173 C98.0387469,21.0533268 97.6620531,21.2239037 97.115847,21.2239037 C96.6638143,21.2239037 96.3153725,21.0722798 96.0705214,20.769032 C95.8256704,20.4657841 95.7032449,20.0488183 95.7032449,19.5181346 L95.7032449,19.5181346 L95.7032449,9.53938489 L92.8215367,9.53938489 L92.8215367,20.598455 C92.8215367,21.2428567 92.9062929,21.7877552 93.0758051,22.2331505 C93.2453174,22.6785458 93.4713337,23.0433909 93.7538541,23.3276857 C94.0363745,23.6119806 94.3565643,23.8157252 94.7144235,23.9389197 C95.0722827,24.0621141 95.4301418,24.1237113 95.788001,24.1237113 Z M106.693289,23.9531344 L106.693289,15.3958591 C106.693289,14.8083163 106.787462,14.3155386 106.975809,13.9175258 C107.164156,13.519513 107.409007,13.1973121 107.710362,12.9509232 C107.992883,12.7045344 108.308364,12.5292192 108.656806,12.4249777 C109.005247,12.3207363 109.330146,12.2686156 109.631501,12.2686156 C109.932856,12.2686156 110.224794,12.3254745 110.507314,12.4391925 L110.507314,12.4391925 L110.507314,9.36880797 C109.678588,9.36880797 108.981704,9.5204319 108.416663,9.82367975 C107.851622,10.1269276 107.277164,10.5438934 106.693289,11.0745771 L106.693289,11.0745771 L106.693289,9.53938489 L103.811581,9.53938489 L103.811581,23.9531344 L106.693289,23.9531344 Z M115.70569,24.1237113 C116.364904,24.1237113 116.958197,24.0099934 117.485568,23.7825575 C118.01294,23.5551216 118.464972,23.2423973 118.841666,22.8443845 C119.613889,22.0673118 120,21.0438503 120,19.7739999 L120,19.7739999 L117.118292,19.7739999 C117.080622,20.0962008 116.972323,20.4184016 116.793393,20.7406025 C116.614464,21.0628033 116.251896,21.2239037 115.70569,21.2239037 C115.272492,21.2239037 114.928759,21.1007093 114.67449,20.8543204 C114.420222,20.6079315 114.293088,20.2573012 114.293088,19.8024294 L114.293088,19.8024294 L114.293088,17.8407949 L120,17.8407949 L120,13.8606668 C120,12.5718634 119.623306,11.5010194 118.869918,10.6481349 C118.493224,10.250122 118.036483,9.9373977 117.499694,9.70996181 C116.962906,9.48252592 116.364904,9.36880797 115.70569,9.36880797 C114.801624,9.36880797 114.034111,9.55833788 113.403148,9.9373977 C112.772186,10.3164575 112.287193,10.8187118 111.948168,11.4441605 C111.740987,11.8232203 111.599727,12.2591391 111.524388,12.7519168 C111.449049,13.2446946 111.41138,13.7848548 111.41138,14.3723976 L111.41138,14.3723976 L111.41138,19.1201218 C111.41138,19.7076645 111.449049,20.2478247 111.524388,20.7406025 C111.599727,21.2333802 111.740987,21.669299 111.948168,22.0483588 C112.287193,22.6738075 112.772186,23.1760618 113.403148,23.5551216 C114.034111,23.9341814 114.801624,24.1237113 115.70569,24.1237113 Z M117.118292,15.566436 L114.293088,15.566436 L114.293088,13.9175258 C114.293088,13.367889 114.420222,12.9556615 114.67449,12.6808431 C114.928759,12.4060248 115.272492,12.2686156 115.70569,12.2686156 C116.138888,12.2686156 116.482621,12.4060248 116.736889,12.6808431 C116.991158,12.9556615 117.118292,13.367889 117.118292,13.9175258 L117.118292,13.9175258 L117.118292,15.566436 Z" id="Posture-Copy" fill="#515294" fill-rule="nonzero"></path>
                    <path d="M36.9023267,47.4582891 L36.9023267,39.5548919 L38.3714328,39.5548919 C39.4450104,39.5548919 40.3114063,39.3701002 40.9706206,39.0005169 C41.6298349,38.6309336 42.1572063,38.1144646 42.5527349,37.4511099 C42.8917594,36.9014732 43.113067,36.3139304 43.2166578,35.6884818 C43.3202487,35.0630331 43.3720441,34.2954369 43.3720441,33.3856934 C43.3720441,32.1727019 43.2778706,31.2108377 43.0895237,30.5001005 C42.9011767,29.7893634 42.5621522,29.1686529 42.0724502,28.6379692 C41.5827481,28.1072854 41.036542,27.7377021 40.4338318,27.5292192 C39.8311216,27.3207363 39.1342379,27.2164948 38.3431808,27.2164948 L38.3431808,27.2164948 L34.0206186,27.2164948 L34.0206186,47.4582891 L36.9023267,47.4582891 Z M38.2866767,36.8256612 L36.9023267,36.8256612 L36.9023267,29.9457255 L38.3996849,29.9457255 C38.9647257,29.9457255 39.3979237,30.031014 39.6992788,30.2015909 C40.0006339,30.3721678 40.2266502,30.6185567 40.3773277,30.9407575 C40.5280053,31.2629584 40.6127614,31.63728 40.6315961,32.0637223 C40.6504308,32.4901645 40.6598481,32.9402981 40.6598481,33.4141228 C40.6598481,33.9258536 40.6457221,34.3902019 40.6174701,34.8071677 C40.589218,35.2241335 40.4997532,35.5747638 40.3490757,35.8590587 C40.1983981,36.1623065 39.9629645,36.3992189 39.6427747,36.5697958 C39.3225849,36.7403727 38.8705522,36.8256612 38.2866767,36.8256612 L38.2866767,36.8256612 Z M49.0507043,47.628866 C49.9547696,47.628866 50.7222833,47.4393361 51.3532456,47.0602763 C51.9842078,46.6812164 52.4692012,46.1789622 52.8082257,45.5535135 C53.0154073,45.1744537 53.1566675,44.7385349 53.2320063,44.2457571 C53.3073451,43.7529794 53.3450145,43.2128191 53.3450145,42.6252764 L53.3450145,42.6252764 L53.3450145,37.8775522 C53.3450145,37.2900095 53.3073451,36.7498492 53.2320063,36.2570715 C53.1566675,35.7642937 53.0154073,35.3283749 52.8082257,34.9493151 C52.4692012,34.3238664 51.9842078,33.8216122 51.3532456,33.4425523 C50.7222833,33.0634925 49.9547696,32.8739626 49.0507043,32.8739626 C48.146639,32.8739626 47.3791252,33.0634925 46.7481629,33.4425523 C46.1172007,33.8216122 45.6322073,34.3238664 45.2931828,34.9493151 C45.0860012,35.3283749 44.944741,35.7642937 44.8694022,36.2570715 C44.7940634,36.7498492 44.7563941,37.2900095 44.7563941,37.8775522 L44.7563941,37.8775522 L44.7563941,42.6252764 C44.7563941,43.2128191 44.7940634,43.7529794 44.8694022,44.2457571 C44.944741,44.7385349 45.0860012,45.1744537 45.2931828,45.5535135 C45.6322073,46.1789622 46.1172007,46.6812164 46.7481629,47.0602763 C47.3791252,47.4393361 48.146639,47.628866 49.0507043,47.628866 Z M49.0507043,44.7290584 C48.6175063,44.7290584 48.2737731,44.5916492 48.0195048,44.3168308 C47.7652364,44.0420125 47.6381022,43.6297849 47.6381022,43.0801482 L47.6381022,43.0801482 L47.6381022,37.4226804 C47.6381022,36.8730437 47.7652364,36.4608161 48.0195048,36.1859978 C48.2737731,35.9111794 48.6175063,35.7737702 49.0507043,35.7737702 C49.4839022,35.7737702 49.8276354,35.9111794 50.0819038,36.1859978 C50.3361721,36.4608161 50.4633063,36.8730437 50.4633063,37.4226804 L50.4633063,37.4226804 L50.4633063,43.0801482 C50.4633063,43.6297849 50.3361721,44.0420125 50.0819038,44.3168308 C49.8276354,44.5916492 49.4839022,44.7290584 49.0507043,44.7290584 Z M59.249691,47.628866 C59.8712359,47.628866 60.4456941,47.515148 60.9730655,47.2877121 C61.5004369,47.0602763 61.9524696,46.7475519 62.3291634,46.3495391 C62.7058573,45.9515263 63.0025037,45.4919163 63.2191027,44.970709 C63.4357017,44.4495018 63.5440012,43.8856503 63.5440012,43.2791546 C63.5440012,42.42627 63.3415282,41.6397209 62.9365823,40.9195072 C62.5316364,40.1992936 61.7923747,39.6307038 60.7187971,39.213738 L60.7187971,39.213738 L59.0236747,38.5314304 C58.4774685,38.3229475 58.1384441,38.0907733 58.0066012,37.834908 C57.8747583,37.5790426 57.8088369,37.318439 57.8088369,37.0530971 C57.8088369,36.6740373 57.9312624,36.3376217 58.1761134,36.0438503 C58.4209645,35.750079 58.7694063,35.6031933 59.221439,35.6031933 C59.5981328,35.6031933 59.9324486,35.7263877 60.2243864,35.9727766 C60.5163242,36.2191655 60.6717104,36.5887488 60.6905451,37.0815266 L60.6905451,37.0815266 L63.402741,37.0815266 C63.402741,36.4939839 63.2991502,35.9396089 63.0919685,35.4184016 C62.8847869,34.8971944 62.6022665,34.4470609 62.2444073,34.068001 C61.8865481,33.6889412 61.4580588,33.3951699 60.9589395,33.186687 C60.4598201,32.9782041 59.9183226,32.8739626 59.3344471,32.8739626 C58.7505716,32.8739626 58.2043655,32.9734658 57.6958287,33.1724722 C57.187292,33.3714786 56.7446767,33.6605117 56.3679828,34.0395715 C55.9724543,34.4186314 55.6616818,34.8687649 55.4356655,35.3899721 C55.2096492,35.9111794 55.096641,36.4750309 55.096641,37.0815266 C55.096641,38.0481291 55.355618,38.867846 55.8735721,39.5406771 C56.3915262,40.2135083 57.1025359,40.7205008 58.0066012,41.0616547 L58.0066012,41.0616547 L59.3909512,41.5733854 C59.9371573,41.7818683 60.3138512,42.0282572 60.5210328,42.312552 C60.7282145,42.5968469 60.8318053,42.9380007 60.8318053,43.3360136 C60.8318053,43.8287913 60.6670017,44.2125894 60.3373946,44.4874077 C60.0077874,44.7622261 59.6358022,44.8996353 59.221439,44.8996353 C58.6752328,44.8996353 58.2938303,44.7290584 58.0772313,44.3879045 C57.8606323,44.0467507 57.7240808,43.6771674 57.6675767,43.2791546 L57.6675767,43.2791546 L54.9553808,43.2791546 C54.9742155,43.9993682 55.1060583,44.6295552 55.3509094,45.1697154 C55.5957604,45.7098757 55.9159502,46.1600092 56.3114787,46.520116 C57.1025359,47.2592827 58.08194,47.628866 59.249691,47.628866 Z M70.0702226,47.4582891 L70.0702226,44.7290584 C69.7500328,44.7290584 69.4816384,44.7195819 69.2650395,44.7006289 C69.0484405,44.6816759 68.8648022,44.6248169 68.7141247,44.530052 C68.5634471,44.435287 68.4551476,44.2931396 68.3892262,44.1036097 C68.3233048,43.9140798 68.2903441,43.6487379 68.2903441,43.3075841 L68.2903441,43.3075841 L68.2903441,35.3188984 L70.0702226,35.3188984 L70.0702226,33.0445395 L68.2903441,33.0445395 L68.2903441,28.6663986 L65.4086359,28.6663986 L65.4086359,33.0445395 L63.9677818,33.0445395 L63.9677818,35.3188984 L65.4086359,35.3188984 L65.4086359,44.0751802 C65.4086359,44.45424 65.4698486,44.8475146 65.5922742,45.2550039 C65.7146997,45.6624932 65.9077553,46.0273383 66.171441,46.3495391 C66.4351267,46.6717399 66.7882772,46.9370818 67.2308925,47.1455647 C67.6735078,47.3540476 68.2244226,47.4582891 68.8836369,47.4582891 L68.8836369,47.4582891 L70.0702226,47.4582891 Z M74.1385165,47.628866 C74.7977308,47.628866 75.3392282,47.4819803 75.7630088,47.1882089 C76.1867895,46.8944376 76.5493573,46.520116 76.8507124,46.0652442 L76.8507124,46.0652442 L76.9072165,46.0652442 L76.9072165,47.4582891 L79.7889247,47.4582891 L79.7889247,33.0445395 L76.9072165,33.0445395 L76.9072165,42.7389943 C76.9072165,43.383396 76.8036257,43.8761738 76.596444,44.2173276 C76.3892624,44.5584815 76.0125685,44.7290584 75.4663624,44.7290584 C75.0143298,44.7290584 74.6658879,44.5774345 74.4210369,44.2741866 C74.1761859,43.9709387 74.0537604,43.5539729 74.0537604,43.0232892 L74.0537604,43.0232892 L74.0537604,33.0445395 L71.1720522,33.0445395 L71.1720522,44.1036097 C71.1720522,44.7480114 71.2568083,45.2929099 71.4263206,45.7383051 C71.5958328,46.1837004 71.8218492,46.5485455 72.1043696,46.8328404 C72.38689,47.1171352 72.7070798,47.3208799 73.0649389,47.4440743 C73.4227981,47.5672688 73.7806573,47.628866 74.1385165,47.628866 Z M85.0438042,47.4582891 L85.0438042,38.9010137 C85.0438042,38.313471 85.1379777,37.8206932 85.3263247,37.4226804 C85.5146716,37.0246676 85.7595226,36.7024668 86.0608777,36.4560779 C86.3433981,36.209689 86.6588792,36.0343738 87.0073211,35.9301324 C87.3557629,35.8258909 87.6806614,35.7737702 87.9820165,35.7737702 C88.2833716,35.7737702 88.5753093,35.8306292 88.8578298,35.9443471 L88.8578298,35.9443471 L88.8578298,32.8739626 C88.0291032,32.8739626 87.3322196,33.0255865 86.7671787,33.3288344 C86.2021379,33.6320822 85.6276798,34.049048 85.0438042,34.5797318 L85.0438042,34.5797318 L85.0438042,33.0445395 L82.1620961,33.0445395 L82.1620961,47.4582891 L85.0438042,47.4582891 Z M94.0562053,47.628866 C94.7154195,47.628866 95.3087124,47.515148 95.8360838,47.2877121 C96.3634553,47.0602763 96.8154879,46.7475519 97.1921818,46.3495391 C97.9644042,45.5724665 98.3505155,44.549005 98.3505155,43.2791546 L98.3505155,43.2791546 L95.4688073,43.2791546 C95.4311379,43.6013554 95.3228384,43.9235563 95.1439088,44.2457571 C94.9649792,44.567958 94.6024114,44.7290584 94.0562053,44.7290584 C93.6230073,44.7290584 93.2792741,44.6058639 93.0250058,44.3594751 C92.7707374,44.1130862 92.6436032,43.7624558 92.6436032,43.3075841 L92.6436032,43.3075841 L92.6436032,41.3459495 L98.3505155,41.3459495 L98.3505155,37.3658214 C98.3505155,36.0770181 97.9738216,35.0061741 97.2204338,34.1532895 C96.84374,33.7552767 96.3869986,33.4425523 95.8502099,33.2151164 C95.3134211,32.9876806 94.7154195,32.8739626 94.0562053,32.8739626 C93.15214,32.8739626 92.3846262,33.0634925 91.7536639,33.4425523 C91.1227017,33.8216122 90.6377083,34.3238664 90.2986838,34.9493151 C90.0915022,35.3283749 89.950242,35.7642937 89.8749032,36.2570715 C89.7995644,36.7498492 89.7618951,37.2900095 89.7618951,37.8775522 L89.7618951,37.8775522 L89.7618951,42.6252764 C89.7618951,43.2128191 89.7995644,43.7529794 89.8749032,44.2457571 C89.950242,44.7385349 90.0915022,45.1744537 90.2986838,45.5535135 C90.6377083,46.1789622 91.1227017,46.6812164 91.7536639,47.0602763 C92.3846262,47.4393361 93.15214,47.628866 94.0562053,47.628866 Z M95.4688073,39.0715906 L92.6436032,39.0715906 L92.6436032,37.4226804 C92.6436032,36.8730437 92.7707374,36.4608161 93.0250058,36.1859978 C93.2792741,35.9111794 93.6230073,35.7737702 94.0562053,35.7737702 C94.4894032,35.7737702 94.8331364,35.9111794 95.0874048,36.1859978 C95.3416731,36.4608161 95.4688073,36.8730437 95.4688073,37.4226804 L95.4688073,37.4226804 L95.4688073,39.0715906 Z" id="Posture" stroke="#515294" stroke-width="0.890721685" fill="#D8BFD8" fill-rule="nonzero"></path>
                    <path d="M2.88170816,70.9634437 L2.88170816,63.0600465 L4.35081428,63.0600465 C5.42439183,63.0600465 6.29078775,62.8752549 6.95000204,62.5056715 C7.60921632,62.1360882 8.13658775,61.6196192 8.53211632,60.9562645 C8.87114081,60.4066278 9.09244846,59.8190851 9.19603928,59.1936364 C9.2996301,58.5681877 9.35142551,57.8005916 9.35142551,56.890848 C9.35142551,55.6778566 9.25725204,54.7159923 9.0689051,54.0052551 C8.88055816,53.294518 8.54153367,52.6738075 8.05183163,52.1431238 C7.56212959,51.6124401 7.01592347,51.2428567 6.41321326,51.0343738 C5.81050306,50.8258909 5.11361939,50.7216495 4.32256224,50.7216495 L4.32256224,50.7216495 L0,50.7216495 L0,70.9634437 L2.88170816,70.9634437 Z M4.26605816,60.3308158 L2.88170816,60.3308158 L2.88170816,53.4508802 L4.37906632,53.4508802 C4.94410714,53.4508802 5.3773051,53.5361686 5.6786602,53.7067455 C5.9800153,53.8773225 6.20603163,54.1237113 6.35670918,54.4459122 C6.50738673,54.768113 6.59214285,55.1424346 6.61097755,55.5688769 C6.62981224,55.9953192 6.63922959,56.4454527 6.63922959,56.9192775 C6.63922959,57.4310082 6.62510357,57.8953565 6.59685153,58.3123223 C6.56859949,58.7292881 6.47913469,59.0799184 6.32845714,59.3642133 C6.17777959,59.6674612 5.94234592,59.9043735 5.62215612,60.0749505 C5.30196632,60.2455274 4.84993367,60.3308158 4.26605816,60.3308158 L4.26605816,60.3308158 Z M15.0300857,71.1340206 C15.934151,71.1340206 16.7016648,70.9444907 17.332627,70.5654309 C17.9635893,70.1863711 18.4485826,69.6841168 18.7876071,69.0586681 C18.9947888,68.6796083 19.136049,68.2436895 19.2113877,67.7509118 C19.2867265,67.258134 19.3243959,66.7179738 19.3243959,66.130431 L19.3243959,66.130431 L19.3243959,61.3827068 C19.3243959,60.7951641 19.2867265,60.2550039 19.2113877,59.7622261 C19.136049,59.2694484 18.9947888,58.8335296 18.7876071,58.4544697 C18.4485826,57.829021 17.9635893,57.3267668 17.332627,56.947707 C16.7016648,56.5686472 15.934151,56.3791173 15.0300857,56.3791173 C14.1260204,56.3791173 13.3585066,56.5686472 12.7275444,56.947707 C12.0965821,57.3267668 11.6115888,57.829021 11.2725643,58.4544697 C11.0653826,58.8335296 10.9241224,59.2694484 10.8487837,59.7622261 C10.7734449,60.2550039 10.7357755,60.7951641 10.7357755,61.3827068 L10.7357755,61.3827068 L10.7357755,66.130431 C10.7357755,66.7179738 10.7734449,67.258134 10.8487837,67.7509118 C10.9241224,68.2436895 11.0653826,68.6796083 11.2725643,69.0586681 C11.6115888,69.6841168 12.0965821,70.1863711 12.7275444,70.5654309 C13.3585066,70.9444907 14.1260204,71.1340206 15.0300857,71.1340206 Z M15.0300857,68.234213 C14.5968877,68.234213 14.2531546,68.0968038 13.9988862,67.8219855 C13.7446179,67.5471671 13.6174837,67.1349396 13.6174837,66.5853028 L13.6174837,66.5853028 L13.6174837,60.9278351 C13.6174837,60.3781983 13.7446179,59.9659708 13.9988862,59.6911524 C14.2531546,59.416334 14.5968877,59.2789248 15.0300857,59.2789248 C15.4632837,59.2789248 15.8070168,59.416334 16.0612852,59.6911524 C16.3155536,59.9659708 16.4426877,60.3781983 16.4426877,60.9278351 L16.4426877,60.9278351 L16.4426877,66.5853028 C16.4426877,67.1349396 16.3155536,67.5471671 16.0612852,67.8219855 C15.8070168,68.0968038 15.4632837,68.234213 15.0300857,68.234213 Z M25.2290724,71.1340206 C25.8506173,71.1340206 26.4250755,71.0203027 26.9524469,70.7928668 C27.4798184,70.5654309 27.931851,70.2527065 28.3085449,69.8546937 C28.6852388,69.4566809 28.9818852,68.9970709 29.1984842,68.4758637 C29.4150831,67.9546564 29.5233826,67.3908049 29.5233826,66.7843092 C29.5233826,65.9314246 29.3209097,65.1448755 28.9159638,64.4246619 C28.5110178,63.7044482 27.7717561,63.1358585 26.6981786,62.7188927 L26.6981786,62.7188927 L25.0030561,62.036585 C24.45685,61.8281021 24.1178255,61.595928 23.9859826,61.3400626 C23.8541398,61.0841972 23.7882184,60.8235936 23.7882184,60.5582517 C23.7882184,60.1791919 23.9106439,59.8427763 24.1554949,59.549005 C24.4003459,59.2552336 24.7487877,59.1083479 25.2008204,59.1083479 C25.5775143,59.1083479 25.9118301,59.2315424 26.2037678,59.4779313 C26.4957056,59.7243201 26.6510918,60.0939035 26.6699265,60.5866812 L26.6699265,60.5866812 L29.3821224,60.5866812 C29.3821224,59.9991385 29.2785316,59.4447635 29.07135,58.9235563 C28.8641684,58.402349 28.5816479,57.9522155 28.2237888,57.5731557 C27.8659296,57.1940959 27.4374403,56.9003245 26.9383209,56.6918416 C26.4392015,56.4833587 25.8977041,56.3791173 25.3138286,56.3791173 C24.729953,56.3791173 24.1837469,56.4786205 23.6752102,56.6776269 C23.1666735,56.8766333 22.7240582,57.1656664 22.3473643,57.5447262 C21.9518357,57.923786 21.6410633,58.3739195 21.4150469,58.8951268 C21.1890306,59.416334 21.0760224,59.9801855 21.0760224,60.5866812 C21.0760224,61.5532837 21.3349995,62.3730006 21.8529536,63.0458318 C22.3709076,63.718663 23.0819173,64.2256555 23.9859826,64.5668093 L23.9859826,64.5668093 L25.3703326,65.07854 C25.9165388,65.2870229 26.2932326,65.5334118 26.5004143,65.8177067 C26.7075959,66.1020016 26.8111867,66.4431554 26.8111867,66.8411682 C26.8111867,67.333946 26.6463832,67.717744 26.316776,67.9925624 C25.9871689,68.2673808 25.6151837,68.4047899 25.2008204,68.4047899 C24.6546143,68.4047899 24.2732117,68.234213 24.0566127,67.8930592 C23.8400138,67.5519053 23.7034622,67.182322 23.6469582,66.7843092 L23.6469582,66.7843092 L20.9347622,66.7843092 C20.9535969,67.5045229 21.0854398,68.1347098 21.3302908,68.6748701 C21.5751418,69.2150303 21.8953316,69.6651638 22.2908602,70.0252707 C23.0819173,70.7644373 24.0613214,71.1340206 25.2290724,71.1340206 Z M36.0496041,70.9634437 L36.0496041,68.234213 C35.7294143,68.234213 35.4610199,68.2247365 35.2444209,68.2057835 C35.0278219,68.1868305 34.8441837,68.1299716 34.6935061,68.0352066 C34.5428286,67.9404417 34.4345291,67.7982942 34.3686076,67.6087643 C34.3026862,67.4192344 34.2697255,67.1538925 34.2697255,66.8127387 L34.2697255,66.8127387 L34.2697255,58.8240531 L36.0496041,58.8240531 L36.0496041,56.5496942 L34.2697255,56.5496942 L34.2697255,52.1715533 L31.3880173,52.1715533 L31.3880173,56.5496942 L29.9471633,56.5496942 L29.9471633,58.8240531 L31.3880173,58.8240531 L31.3880173,67.5803348 C31.3880173,67.9593947 31.4492301,68.3526692 31.5716556,68.7601585 C31.6940811,69.1676478 31.8871367,69.5324929 32.1508224,69.8546937 C32.4145081,70.1768946 32.7676587,70.4422365 33.210274,70.6507194 C33.6528893,70.8592023 34.2038041,70.9634437 34.8630184,70.9634437 L34.8630184,70.9634437 L36.0496041,70.9634437 Z M40.1178979,71.1340206 C40.7771122,71.1340206 41.3186097,70.9871349 41.7423903,70.6933636 C42.1661709,70.3995922 42.5287388,70.0252707 42.8300939,69.5703989 L42.8300939,69.5703989 L42.8865979,69.5703989 L42.8865979,70.9634437 L45.7683061,70.9634437 L45.7683061,56.5496942 L42.8865979,56.5496942 L42.8865979,66.244149 C42.8865979,66.8885507 42.7830071,67.3813284 42.5758255,67.7224823 C42.3686439,68.0636361 41.99195,68.234213 41.4457439,68.234213 C40.9937112,68.234213 40.6452694,68.0825891 40.4004183,67.7793412 C40.1555673,67.4760934 40.0331418,67.0591276 40.0331418,66.5284438 L40.0331418,66.5284438 L40.0331418,56.5496942 L37.1514337,56.5496942 L37.1514337,67.6087643 C37.1514337,68.253166 37.2361898,68.7980645 37.405702,69.2434598 C37.5752143,69.6888551 37.8012306,70.0537001 38.083751,70.337995 C38.3662714,70.6222899 38.6864612,70.8260345 39.0443204,70.949229 C39.4021796,71.0724234 39.7600388,71.1340206 40.1178979,71.1340206 Z M51.0231857,70.9634437 L51.0231857,62.4061683 C51.0231857,61.8186256 51.1173592,61.3258479 51.3057061,60.9278351 C51.494053,60.5298222 51.7389041,60.2076214 52.0402592,59.9612325 C52.3227796,59.7148436 52.6382607,59.5395285 52.9867025,59.435287 C53.3351444,59.3310456 53.6600428,59.2789248 53.9613979,59.2789248 C54.262753,59.2789248 54.5546908,59.3357838 54.8372112,59.4495018 L54.8372112,59.4495018 L54.8372112,56.3791173 C54.0084847,56.3791173 53.311601,56.5307412 52.7465602,56.833989 C52.1815194,57.1372369 51.6070612,57.5542027 51.0231857,58.0848864 L51.0231857,58.0848864 L51.0231857,56.5496942 L48.1414775,56.5496942 L48.1414775,70.9634437 L51.0231857,70.9634437 Z M60.0355867,71.1340206 C60.694801,71.1340206 61.2880938,71.0203027 61.8154653,70.7928668 C62.3428367,70.5654309 62.7948694,70.2527065 63.1715632,69.8546937 C63.9437857,69.0776211 64.3298969,68.0541596 64.3298969,66.7843092 L64.3298969,66.7843092 L61.4481887,66.7843092 C61.4105194,67.1065101 61.3022199,67.4287109 61.1232903,67.7509118 C60.9443607,68.0731126 60.5817928,68.234213 60.0355867,68.234213 C59.6023887,68.234213 59.2586556,68.1110186 59.0043872,67.8646297 C58.7501188,67.6182408 58.6229847,67.2676105 58.6229847,66.8127387 L58.6229847,66.8127387 L58.6229847,64.8511042 L64.3298969,64.8511042 L64.3298969,60.8709761 C64.3298969,59.5821727 63.953203,58.5113287 63.1998153,57.6584441 C62.8231214,57.2604313 62.3663801,56.947707 61.8295913,56.7202711 C61.2928025,56.4928352 60.694801,56.3791173 60.0355867,56.3791173 C59.1315214,56.3791173 58.3640076,56.5686472 57.7330454,56.947707 C57.1020831,57.3267668 56.6170898,57.829021 56.2780653,58.4544697 C56.0708836,58.8335296 55.9296234,59.2694484 55.8542847,59.7622261 C55.7789459,60.2550039 55.7412765,60.7951641 55.7412765,61.3827068 L55.7412765,61.3827068 L55.7412765,66.130431 C55.7412765,66.7179738 55.7789459,67.258134 55.8542847,67.7509118 C55.9296234,68.2436895 56.0708836,68.6796083 56.2780653,69.0586681 C56.6170898,69.6841168 57.1020831,70.1863711 57.7330454,70.5654309 C58.3640076,70.9444907 59.1315214,71.1340206 60.0355867,71.1340206 Z M61.4481887,62.5767453 L58.6229847,62.5767453 L58.6229847,60.9278351 C58.6229847,60.3781983 58.7501188,59.9659708 59.0043872,59.6911524 C59.2586556,59.416334 59.6023887,59.2789248 60.0355867,59.2789248 C60.4687847,59.2789248 60.8125178,59.416334 61.0667862,59.6911524 C61.3210546,59.9659708 61.4481887,60.3781983 61.4481887,60.9278351 L61.4481887,60.9278351 L61.4481887,62.5767453 Z" id="Posture-Copy-2" fill="#D8BFD8" fill-rule="nonzero"></path>
                    <path d="M2.88170816,70.9634437 L2.88170816,63.0600465 L4.35081428,63.0600465 C5.42439183,63.0600465 6.29078775,62.8752549 6.95000204,62.5056715 C7.60921632,62.1360882 8.13658775,61.6196192 8.53211632,60.9562645 C8.87114081,60.4066278 9.09244846,59.8190851 9.19603928,59.1936364 C9.2996301,58.5681877 9.35142551,57.8005916 9.35142551,56.890848 C9.35142551,55.6778566 9.25725204,54.7159923 9.0689051,54.0052551 C8.88055816,53.294518 8.54153367,52.6738075 8.05183163,52.1431238 C7.56212959,51.6124401 7.01592347,51.2428567 6.41321326,51.0343738 C5.81050306,50.8258909 5.11361939,50.7216495 4.32256224,50.7216495 L4.32256224,50.7216495 L0,50.7216495 L0,70.9634437 L2.88170816,70.9634437 Z M4.26605816,60.3308158 L2.88170816,60.3308158 L2.88170816,53.4508802 L4.37906632,53.4508802 C4.94410714,53.4508802 5.3773051,53.5361686 5.6786602,53.7067455 C5.9800153,53.8773225 6.20603163,54.1237113 6.35670918,54.4459122 C6.50738673,54.768113 6.59214285,55.1424346 6.61097755,55.5688769 C6.62981224,55.9953192 6.63922959,56.4454527 6.63922959,56.9192775 C6.63922959,57.4310082 6.62510357,57.8953565 6.59685153,58.3123223 C6.56859949,58.7292881 6.47913469,59.0799184 6.32845714,59.3642133 C6.17777959,59.6674612 5.94234592,59.9043735 5.62215612,60.0749505 C5.30196632,60.2455274 4.84993367,60.3308158 4.26605816,60.3308158 L4.26605816,60.3308158 Z M15.0300857,71.1340206 C15.934151,71.1340206 16.7016648,70.9444907 17.332627,70.5654309 C17.9635893,70.1863711 18.4485826,69.6841168 18.7876071,69.0586681 C18.9947888,68.6796083 19.136049,68.2436895 19.2113877,67.7509118 C19.2867265,67.258134 19.3243959,66.7179738 19.3243959,66.130431 L19.3243959,66.130431 L19.3243959,61.3827068 C19.3243959,60.7951641 19.2867265,60.2550039 19.2113877,59.7622261 C19.136049,59.2694484 18.9947888,58.8335296 18.7876071,58.4544697 C18.4485826,57.829021 17.9635893,57.3267668 17.332627,56.947707 C16.7016648,56.5686472 15.934151,56.3791173 15.0300857,56.3791173 C14.1260204,56.3791173 13.3585066,56.5686472 12.7275444,56.947707 C12.0965821,57.3267668 11.6115888,57.829021 11.2725643,58.4544697 C11.0653826,58.8335296 10.9241224,59.2694484 10.8487837,59.7622261 C10.7734449,60.2550039 10.7357755,60.7951641 10.7357755,61.3827068 L10.7357755,61.3827068 L10.7357755,66.130431 C10.7357755,66.7179738 10.7734449,67.258134 10.8487837,67.7509118 C10.9241224,68.2436895 11.0653826,68.6796083 11.2725643,69.0586681 C11.6115888,69.6841168 12.0965821,70.1863711 12.7275444,70.5654309 C13.3585066,70.9444907 14.1260204,71.1340206 15.0300857,71.1340206 Z M15.0300857,68.234213 C14.5968877,68.234213 14.2531546,68.0968038 13.9988862,67.8219855 C13.7446179,67.5471671 13.6174837,67.1349396 13.6174837,66.5853028 L13.6174837,66.5853028 L13.6174837,60.9278351 C13.6174837,60.3781983 13.7446179,59.9659708 13.9988862,59.6911524 C14.2531546,59.416334 14.5968877,59.2789248 15.0300857,59.2789248 C15.4632837,59.2789248 15.8070168,59.416334 16.0612852,59.6911524 C16.3155536,59.9659708 16.4426877,60.3781983 16.4426877,60.9278351 L16.4426877,60.9278351 L16.4426877,66.5853028 C16.4426877,67.1349396 16.3155536,67.5471671 16.0612852,67.8219855 C15.8070168,68.0968038 15.4632837,68.234213 15.0300857,68.234213 Z M25.2290724,71.1340206 C25.8506173,71.1340206 26.4250755,71.0203027 26.9524469,70.7928668 C27.4798184,70.5654309 27.931851,70.2527065 28.3085449,69.8546937 C28.6852388,69.4566809 28.9818852,68.9970709 29.1984842,68.4758637 C29.4150831,67.9546564 29.5233826,67.3908049 29.5233826,66.7843092 C29.5233826,65.9314246 29.3209097,65.1448755 28.9159638,64.4246619 C28.5110178,63.7044482 27.7717561,63.1358585 26.6981786,62.7188927 L26.6981786,62.7188927 L25.0030561,62.036585 C24.45685,61.8281021 24.1178255,61.595928 23.9859826,61.3400626 C23.8541398,61.0841972 23.7882184,60.8235936 23.7882184,60.5582517 C23.7882184,60.1791919 23.9106439,59.8427763 24.1554949,59.549005 C24.4003459,59.2552336 24.7487877,59.1083479 25.2008204,59.1083479 C25.5775143,59.1083479 25.9118301,59.2315424 26.2037678,59.4779313 C26.4957056,59.7243201 26.6510918,60.0939035 26.6699265,60.5866812 L26.6699265,60.5866812 L29.3821224,60.5866812 C29.3821224,59.9991385 29.2785316,59.4447635 29.07135,58.9235563 C28.8641684,58.402349 28.5816479,57.9522155 28.2237888,57.5731557 C27.8659296,57.1940959 27.4374403,56.9003245 26.9383209,56.6918416 C26.4392015,56.4833587 25.8977041,56.3791173 25.3138286,56.3791173 C24.729953,56.3791173 24.1837469,56.4786205 23.6752102,56.6776269 C23.1666735,56.8766333 22.7240582,57.1656664 22.3473643,57.5447262 C21.9518357,57.923786 21.6410633,58.3739195 21.4150469,58.8951268 C21.1890306,59.416334 21.0760224,59.9801855 21.0760224,60.5866812 C21.0760224,61.5532837 21.3349995,62.3730006 21.8529536,63.0458318 C22.3709076,63.718663 23.0819173,64.2256555 23.9859826,64.5668093 L23.9859826,64.5668093 L25.3703326,65.07854 C25.9165388,65.2870229 26.2932326,65.5334118 26.5004143,65.8177067 C26.7075959,66.1020016 26.8111867,66.4431554 26.8111867,66.8411682 C26.8111867,67.333946 26.6463832,67.717744 26.316776,67.9925624 C25.9871689,68.2673808 25.6151837,68.4047899 25.2008204,68.4047899 C24.6546143,68.4047899 24.2732117,68.234213 24.0566127,67.8930592 C23.8400138,67.5519053 23.7034622,67.182322 23.6469582,66.7843092 L23.6469582,66.7843092 L20.9347622,66.7843092 C20.9535969,67.5045229 21.0854398,68.1347098 21.3302908,68.6748701 C21.5751418,69.2150303 21.8953316,69.6651638 22.2908602,70.0252707 C23.0819173,70.7644373 24.0613214,71.1340206 25.2290724,71.1340206 Z M36.0496041,70.9634437 L36.0496041,68.234213 C35.7294143,68.234213 35.4610199,68.2247365 35.2444209,68.2057835 C35.0278219,68.1868305 34.8441837,68.1299716 34.6935061,68.0352066 C34.5428286,67.9404417 34.4345291,67.7982942 34.3686076,67.6087643 C34.3026862,67.4192344 34.2697255,67.1538925 34.2697255,66.8127387 L34.2697255,66.8127387 L34.2697255,58.8240531 L36.0496041,58.8240531 L36.0496041,56.5496942 L34.2697255,56.5496942 L34.2697255,52.1715533 L31.3880173,52.1715533 L31.3880173,56.5496942 L29.9471633,56.5496942 L29.9471633,58.8240531 L31.3880173,58.8240531 L31.3880173,67.5803348 C31.3880173,67.9593947 31.4492301,68.3526692 31.5716556,68.7601585 C31.6940811,69.1676478 31.8871367,69.5324929 32.1508224,69.8546937 C32.4145081,70.1768946 32.7676587,70.4422365 33.210274,70.6507194 C33.6528893,70.8592023 34.2038041,70.9634437 34.8630184,70.9634437 L34.8630184,70.9634437 L36.0496041,70.9634437 Z M40.1178979,71.1340206 C40.7771122,71.1340206 41.3186097,70.9871349 41.7423903,70.6933636 C42.1661709,70.3995922 42.5287388,70.0252707 42.8300939,69.5703989 L42.8300939,69.5703989 L42.8865979,69.5703989 L42.8865979,70.9634437 L45.7683061,70.9634437 L45.7683061,56.5496942 L42.8865979,56.5496942 L42.8865979,66.244149 C42.8865979,66.8885507 42.7830071,67.3813284 42.5758255,67.7224823 C42.3686439,68.0636361 41.99195,68.234213 41.4457439,68.234213 C40.9937112,68.234213 40.6452694,68.0825891 40.4004183,67.7793412 C40.1555673,67.4760934 40.0331418,67.0591276 40.0331418,66.5284438 L40.0331418,66.5284438 L40.0331418,56.5496942 L37.1514337,56.5496942 L37.1514337,67.6087643 C37.1514337,68.253166 37.2361898,68.7980645 37.405702,69.2434598 C37.5752143,69.6888551 37.8012306,70.0537001 38.083751,70.337995 C38.3662714,70.6222899 38.6864612,70.8260345 39.0443204,70.949229 C39.4021796,71.0724234 39.7600388,71.1340206 40.1178979,71.1340206 Z M51.0231857,70.9634437 L51.0231857,62.4061683 C51.0231857,61.8186256 51.1173592,61.3258479 51.3057061,60.9278351 C51.494053,60.5298222 51.7389041,60.2076214 52.0402592,59.9612325 C52.3227796,59.7148436 52.6382607,59.5395285 52.9867025,59.435287 C53.3351444,59.3310456 53.6600428,59.2789248 53.9613979,59.2789248 C54.262753,59.2789248 54.5546908,59.3357838 54.8372112,59.4495018 L54.8372112,59.4495018 L54.8372112,56.3791173 C54.0084847,56.3791173 53.311601,56.5307412 52.7465602,56.833989 C52.1815194,57.1372369 51.6070612,57.5542027 51.0231857,58.0848864 L51.0231857,58.0848864 L51.0231857,56.5496942 L48.1414775,56.5496942 L48.1414775,70.9634437 L51.0231857,70.9634437 Z M60.0355867,71.1340206 C60.694801,71.1340206 61.2880938,71.0203027 61.8154653,70.7928668 C62.3428367,70.5654309 62.7948694,70.2527065 63.1715632,69.8546937 C63.9437857,69.0776211 64.3298969,68.0541596 64.3298969,66.7843092 L64.3298969,66.7843092 L61.4481887,66.7843092 C61.4105194,67.1065101 61.3022199,67.4287109 61.1232903,67.7509118 C60.9443607,68.0731126 60.5817928,68.234213 60.0355867,68.234213 C59.6023887,68.234213 59.2586556,68.1110186 59.0043872,67.8646297 C58.7501188,67.6182408 58.6229847,67.2676105 58.6229847,66.8127387 L58.6229847,66.8127387 L58.6229847,64.8511042 L64.3298969,64.8511042 L64.3298969,60.8709761 C64.3298969,59.5821727 63.953203,58.5113287 63.1998153,57.6584441 C62.8231214,57.2604313 62.3663801,56.947707 61.8295913,56.7202711 C61.2928025,56.4928352 60.694801,56.3791173 60.0355867,56.3791173 C59.1315214,56.3791173 58.3640076,56.5686472 57.7330454,56.947707 C57.1020831,57.3267668 56.6170898,57.829021 56.2780653,58.4544697 C56.0708836,58.8335296 55.9296234,59.2694484 55.8542847,59.7622261 C55.7789459,60.2550039 55.7412765,60.7951641 55.7412765,61.3827068 L55.7412765,61.3827068 L55.7412765,66.130431 C55.7412765,66.7179738 55.7789459,67.258134 55.8542847,67.7509118 C55.9296234,68.2436895 56.0708836,68.6796083 56.2780653,69.0586681 C56.6170898,69.6841168 57.1020831,70.1863711 57.7330454,70.5654309 C58.3640076,70.9444907 59.1315214,71.1340206 60.0355867,71.1340206 Z M61.4481887,62.5767453 L58.6229847,62.5767453 L58.6229847,60.9278351 C58.6229847,60.3781983 58.7501188,59.9659708 59.0043872,59.6911524 C59.2586556,59.416334 59.6023887,59.2789248 60.0355867,59.2789248 C60.4687847,59.2789248 60.8125178,59.416334 61.0667862,59.6911524 C61.3210546,59.9659708 61.4481887,60.3781983 61.4481887,60.9278351 L61.4481887,60.9278351 L61.4481887,62.5767453 Z" id="Posture-Copy-3" fill="#515294" fill-rule="nonzero"></path>
                </g>
            </g>
        </g>
    </g>
</svg>