<?xml version="1.0" encoding="UTF-8"?>
<svg width="128px" height="128px" viewBox="0 0 128 128" version="1.1" xmlns="http://www.w3.org/2000/svg" xmlns:xlink="http://www.w3.org/1999/xlink">
    <!-- Generator: Sketch 63.1 (92452) - https://sketch.com -->
    <title>icon-120x120 copy 2</title>
    <desc>Created with Sketch.</desc>
    <defs>
        <rect id="path-1" x="24.5333333" y="0" width="79.1752577" height="79.1752577"></rect>
    </defs>
    <g id="Page-1" stroke="none" stroke-width="1" fill="none" fill-rule="evenodd">
        <g id="Artboard" transform="translate(-741.000000, -432.000000)">
            <g id="icon-120x120-copy-2" transform="translate(741.000000, 432.000000)">
                <rect id="icon" fill="#F1C0E8" fill-rule="nonzero" x="0" y="0" width="128" height="128"></rect>
                <g id="icon-grp" transform="translate(0.000000, 24.000000)">
                    <mask id="mask-2" fill="white">
                        <use xlink:href="#path-1"></use>
                    </mask>
                    <use id="Mask" fill="#CFBAF0" fill-rule="nonzero" xlink:href="#path-1"></use>
                    <path d="M62.4552653,25.5500101 L62.4552653,17.1197197 L64.0223119,17.1197197 C65.1674613,17.1197197 66.0916169,16.9226086 66.7947788,16.5283864 C67.4979407,16.1341642 68.0604702,15.5832639 68.4823674,14.8756856 C68.8439935,14.2894064 69.080055,13.6626942 69.1905519,12.9955489 C69.3010487,12.3284036 69.3562972,11.5096344 69.3562972,10.5392413 C69.3562972,9.2453838 69.2558455,8.21939523 69.0549421,7.46127559 C68.8540387,6.70315596 68.4924125,6.04106481 67.9700637,5.47500215 C67.4477149,4.90893949 66.865095,4.51471728 66.2222041,4.29233553 C65.5793132,4.06995377 64.8359706,3.95876289 63.9921764,3.95876289 L63.9921764,3.95876289 L59.3814433,3.95876289 L59.3814433,25.5500101 L62.4552653,25.5500101 Z M63.9319053,14.2085403 L62.4552653,14.2085403 L62.4552653,6.86994228 L64.0524474,6.86994228 C64.6551576,6.86994228 65.1172354,6.96091664 65.4386808,7.14286535 C65.7601263,7.32481406 66.0012104,7.58762887 66.1619331,7.93130977 C66.3226558,8.27499067 66.4130623,8.67426701 66.4331527,9.12913879 C66.453243,9.58401057 66.4632882,10.064153 66.4632882,10.5695661 C66.4632882,11.1154122 66.4482204,11.6107171 66.4180849,12.0554806 C66.3879494,12.5002441 66.2925203,12.8742498 66.1317976,13.1774976 C65.9710749,13.500962 65.7199456,13.7536686 65.3784098,13.9356173 C65.036874,14.117566 64.5547059,14.2085403 63.9319053,14.2085403 L63.9319053,14.2085403 Z M75.4135347,25.7319588 C76.377871,25.7319588 77.1965524,25.5297935 77.8695788,25.1254631 C78.5426052,24.7211326 79.0599315,24.1853947 79.4215576,23.5182494 C79.6425513,23.113919 79.7932289,22.6489389 79.8735902,22.1233093 C79.9539516,21.5976797 79.9941323,21.0215088 79.9941323,20.3947965 L79.9941323,20.3947965 L79.9941323,15.3305574 C79.9941323,14.7038452 79.9539516,14.1276742 79.8735902,13.6020446 C79.7932289,13.076415 79.6425513,12.611435 79.4215576,12.2071045 C79.0599315,11.5399592 78.5426052,11.0042213 77.8695788,10.5998909 C77.1965524,10.1955604 76.377871,9.99339517 75.4135347,9.99339517 C74.4491984,9.99339517 73.630517,10.1955604 72.9574906,10.5998909 C72.2844642,11.0042213 71.767138,11.5399592 71.4055119,12.2071045 C71.1845181,12.611435 71.0338406,13.076415 70.9534792,13.6020446 C70.8731179,14.1276742 70.8329372,14.7038452 70.8329372,15.3305574 L70.8329372,15.3305574 L70.8329372,20.3947965 C70.8329372,21.0215088 70.8731179,21.5976797 70.9534792,22.1233093 C71.0338406,22.6489389 71.1845181,23.113919 71.4055119,23.5182494 C71.767138,24.1853947 72.2844642,24.7211326 72.9574906,25.1254631 C73.630517,25.5297935 74.4491984,25.7319588 75.4135347,25.7319588 Z M75.4135347,22.6388307 C74.9514569,22.6388307 74.5848082,22.4922609 74.3135886,22.1991213 C74.042369,21.9059817 73.9067592,21.4662723 73.9067592,20.8799931 L73.9067592,20.8799931 L73.9067592,14.8453608 C73.9067592,14.2590816 74.042369,13.8193723 74.3135886,13.5262327 C74.5848082,13.2330931 74.9514569,13.0865233 75.4135347,13.0865233 C75.8756125,13.0865233 76.2422612,13.2330931 76.5134808,13.5262327 C76.7847004,13.8193723 76.9203102,14.2590816 76.9203102,14.8453608 L76.9203102,14.8453608 L76.9203102,20.8799931 C76.9203102,21.4662723 76.7847004,21.9059817 76.5134808,22.1991213 C76.2422612,22.4922609 75.8756125,22.6388307 75.4135347,22.6388307 Z M86.2924539,25.7319588 C86.9554351,25.7319588 87.5681905,25.6106596 88.13072,25.3680613 C88.6932495,25.1254631 89.1754177,24.7918904 89.5772245,24.3673434 C89.9790313,23.9427964 90.2954542,23.4525457 90.5264931,22.8965913 C90.757532,22.3406369 90.8730514,21.7391954 90.8730514,21.0922666 C90.8730514,20.182523 90.6570803,19.3435373 90.225138,18.5753094 C89.7931957,17.8070815 89.0046498,17.2005858 87.8595004,16.7558223 L87.8595004,16.7558223 L86.0513698,16.0280275 C85.46875,15.8056457 85.1071238,15.5579933 84.9664914,15.2850702 C84.8258591,15.0121471 84.7555429,14.7341699 84.7555429,14.4511386 C84.7555429,14.0468081 84.8861301,13.6879649 85.1473045,13.3746087 C85.4084789,13.0612526 85.7801502,12.9045746 86.2623184,12.9045746 C86.6641252,12.9045746 87.0207287,13.035982 87.332129,13.2987968 C87.6435293,13.5616116 87.8092746,13.9558338 87.8293649,14.4814634 L87.8293649,14.4814634 L90.7223739,14.4814634 C90.7223739,13.8547512 90.611877,13.2634179 90.3908833,12.7074635 C90.1698895,12.1515091 89.8685344,11.6713666 89.486818,11.2670362 C89.1051015,10.8627057 88.6480463,10.5493496 88.1156523,10.3269678 C87.5832583,10.104586 87.005661,9.99339517 86.3828604,9.99339517 C85.7600599,9.99339517 85.17744,10.0995319 84.6350008,10.3118054 C84.0925617,10.5240789 83.6204387,10.8323809 83.2186319,11.2367114 C82.7967347,11.6410418 82.4652441,12.1211843 82.22416,12.6771387 C81.9830759,13.2330931 81.8625339,13.8345346 81.8625339,14.4814634 C81.8625339,15.5125061 82.1387761,16.3868707 82.6912604,17.1045573 C83.2437448,17.8222439 84.0021551,18.3630359 84.9664914,18.7269333 L84.9664914,18.7269333 L86.4431314,19.2727795 C87.0257513,19.4951612 87.4275581,19.7579761 87.6485519,20.0612239 C87.8695456,20.3644718 87.9800425,20.7283692 87.9800425,21.1529162 C87.9800425,21.6785458 87.804252,22.0879304 87.452671,22.38107 C87.1010901,22.6742096 86.7043059,22.8207794 86.2623184,22.8207794 C85.6796985,22.8207794 85.2728691,22.6388307 85.0418302,22.2749332 C84.8107913,21.9110358 84.6651363,21.5168136 84.6048653,21.0922666 L84.6048653,21.0922666 L81.7118563,21.0922666 C81.7319467,21.8604945 81.8725791,22.5326939 82.1337535,23.1088648 C82.3949279,23.6850358 82.7364637,24.1651782 83.1583608,24.5492921 C84.0021551,25.3377366 85.0468528,25.7319588 86.2924539,25.7319588 Z M97.8343543,25.5500101 L97.8343543,22.6388307 C97.4928185,22.6388307 97.2065312,22.6287224 96.9754923,22.6085059 C96.7444533,22.5882893 96.5485725,22.5276398 96.3878498,22.4265572 C96.2271271,22.3254745 96.1116076,22.1738506 96.0412914,21.9716854 C95.9709753,21.7695201 95.9358172,21.4864888 95.9358172,21.1225914 L95.9358172,21.1225914 L95.9358172,12.6013267 L97.8343543,12.6013267 L97.8343543,10.1753439 L95.9358172,10.1753439 L95.9358172,5.50532694 L92.8619951,5.50532694 L92.8619951,10.1753439 L91.3250841,10.1753439 L91.3250841,12.6013267 L92.8619951,12.6013267 L92.8619951,21.9413606 C92.8619951,22.3456911 92.9272887,22.7651839 93.0578759,23.1998392 C93.1884631,23.6344944 93.3943891,24.0236625 93.6756539,24.3673434 C93.9569187,24.7110243 94.3336125,24.9940557 94.8057355,25.2164374 C95.2778585,25.4388192 95.865501,25.5500101 96.5686629,25.5500101 L96.5686629,25.5500101 L97.8343543,25.5500101 Z M102.173868,25.7319588 C102.87703,25.7319588 103.454627,25.5752807 103.90666,25.2619246 C104.358692,24.9485685 104.745431,24.5492921 105.066877,24.0640956 L105.066877,24.0640956 L105.127148,24.0640956 L105.127148,25.5500101 L108.20097,25.5500101 L108.20097,10.1753439 L105.127148,10.1753439 L105.127148,20.5160957 C105.127148,21.2034575 105.016651,21.7290871 104.795657,22.0929845 C104.574663,22.4568819 104.172857,22.6388307 103.590237,22.6388307 C103.108069,22.6388307 102.736397,22.4770985 102.475223,22.1536341 C102.214048,21.8301697 102.083461,21.3854062 102.083461,20.8193435 L102.083461,20.8193435 L102.083461,10.1753439 L99.0096392,10.1753439 L99.0096392,21.9716854 C99.0096392,22.6590472 99.1000457,23.2402722 99.2808588,23.7153605 C99.4616719,24.1904488 99.7027559,24.5796169 100.004111,24.8828648 C100.305466,25.1861126 100.647002,25.4034403 101.028718,25.5348477 C101.410435,25.6662551 101.792151,25.7319588 102.173868,25.7319588 Z M113.806175,25.5500101 L113.806175,16.4222497 C113.806175,15.7955374 113.906626,15.2699078 114.10753,14.8453608 C114.308433,14.4208138 114.569608,14.0771329 114.891053,13.8143181 C115.192408,13.5515033 115.528921,13.3645005 115.900593,13.2533096 C116.272264,13.1421187 116.618822,13.0865233 116.940268,13.0865233 C117.261713,13.0865233 117.573113,13.1471728 117.874469,13.268472 L117.874469,13.268472 L117.874469,9.99339517 C116.990494,9.99339517 116.247151,10.1551274 115.644441,10.4785917 C115.041731,10.8020561 114.428975,11.2468196 113.806175,11.8128823 L113.806175,11.8128823 L113.806175,10.1753439 L110.732353,10.1753439 L110.732353,25.5500101 L113.806175,25.5500101 Z M123.419402,25.7319588 C124.122564,25.7319588 124.75541,25.6106596 125.31794,25.3680613 C125.880469,25.1254631 126.362637,24.7918904 126.764444,24.3673434 C127.588148,23.538466 128,22.4467737 128,21.0922666 L128,21.0922666 L124.926178,21.0922666 C124.885997,21.4359475 124.770478,21.7796284 124.57962,22.1233093 C124.388761,22.4669902 124.002022,22.6388307 123.419402,22.6388307 C122.957325,22.6388307 122.590676,22.5074233 122.319456,22.2446084 C122.048237,21.9817936 121.912627,21.607788 121.912627,21.1225914 L121.912627,21.1225914 L121.912627,19.0301812 L128,19.0301812 L128,14.7847113 C128,13.4099877 127.598193,12.2677541 126.79458,11.3580105 C126.392773,10.9334635 125.905582,10.5998909 125.333007,10.3572926 C124.760433,10.1146943 124.122564,9.99339517 123.419402,9.99339517 C122.455066,9.99339517 121.636385,10.1955604 120.963358,10.5998909 C120.290332,11.0042213 119.773006,11.5399592 119.41138,12.2071045 C119.190386,12.611435 119.039708,13.076415 118.959347,13.6020446 C118.878986,14.1276742 118.838805,14.7038452 118.838805,15.3305574 L118.838805,15.3305574 L118.838805,20.3947965 C118.838805,21.0215088 118.878986,21.5976797 118.959347,22.1233093 C119.039708,22.6489389 119.190386,23.113919 119.41138,23.5182494 C119.773006,24.1853947 120.290332,24.7211326 120.963358,25.1254631 C121.636385,25.5297935 122.455066,25.7319588 123.419402,25.7319588 Z M124.926178,16.6041984 L121.912627,16.6041984 L121.912627,14.8453608 C121.912627,14.2590816 122.048237,13.8193723 122.319456,13.5262327 C122.590676,13.2330931 122.957325,13.0865233 123.419402,13.0865233 C123.88148,13.0865233 124.248129,13.2330931 124.519349,13.5262327 C124.790568,13.8193723 124.926178,14.2590816 124.926178,14.8453608 L124.926178,14.8453608 L124.926178,16.6041984 Z" id="Posture-Copy" fill="#515294" fill-rule="nonzero"></path>
                    <path d="M39.3624818,50.622175 L39.3624818,42.1918847 L40.9295284,42.1918847 C42.0746778,42.1918847 42.9988334,41.9947736 43.7019953,41.6005514 C44.4051572,41.2063292 44.9676867,40.6554289 45.3895839,39.9478506 C45.75121,39.3615714 45.9872715,38.7348591 46.0977684,38.0677139 C46.2082652,37.4005686 46.2635137,36.5817994 46.2635137,35.6114063 C46.2635137,34.3175487 46.163062,33.2915602 45.9621586,32.5334405 C45.7612552,31.7753209 45.399629,31.1132298 44.8772802,30.5471671 C44.3549314,29.9811044 43.7723115,29.5868822 43.1294206,29.3645005 C42.4865297,29.1421187 41.7431871,29.0309278 40.8993929,29.0309278 L40.8993929,29.0309278 L36.2886598,29.0309278 L36.2886598,50.622175 L39.3624818,50.622175 Z M40.8391218,39.2807053 L39.3624818,39.2807053 L39.3624818,31.9421072 L40.9596639,31.9421072 C41.5623741,31.9421072 42.0244519,32.0330816 42.3458973,32.2150303 C42.6673428,32.396979 42.9084269,32.6597938 43.0691496,33.0034747 C43.2298723,33.3471556 43.3202788,33.746432 43.3403692,34.2013037 C43.3604595,34.6561755 43.3705047,35.136318 43.3705047,35.641731 C43.3705047,36.1875772 43.3554369,36.682882 43.3253014,37.1276455 C43.2951659,37.572409 43.1997368,37.9464147 43.0390141,38.2496626 C42.8782914,38.573127 42.6271621,38.8258335 42.2856263,39.0077822 C41.9440905,39.1897309 41.4619224,39.2807053 40.8391218,39.2807053 L40.8391218,39.2807053 Z M52.3207512,50.8041237 C53.2850875,50.8041237 54.1037689,50.6019585 54.7767953,50.197628 C55.4498217,49.7932975 55.9671479,49.2575597 56.3287741,48.5904144 C56.5497678,48.1860839 56.7004454,47.7211039 56.7808067,47.1954743 C56.8611681,46.6698446 56.9013488,46.0936737 56.9013488,45.4669615 L56.9013488,45.4669615 L56.9013488,40.4027223 C56.9013488,39.7760101 56.8611681,39.1998392 56.7808067,38.6742096 C56.7004454,38.14858 56.5497678,37.6835999 56.3287741,37.2792694 C55.9671479,36.6121242 55.4498217,36.0763863 54.7767953,35.6720558 C54.1037689,35.2677254 53.2850875,35.0655601 52.3207512,35.0655601 C51.3564149,35.0655601 50.5377335,35.2677254 49.8647071,35.6720558 C49.1916807,36.0763863 48.6743545,36.6121242 48.3127284,37.2792694 C48.0917346,37.6835999 47.9410571,38.14858 47.8606957,38.6742096 C47.7803343,39.1998392 47.7401537,39.7760101 47.7401537,40.4027223 L47.7401537,40.4027223 L47.7401537,45.4669615 C47.7401537,46.0936737 47.7803343,46.6698446 47.8606957,47.1954743 C47.9410571,47.7211039 48.0917346,48.1860839 48.3127284,48.5904144 C48.6743545,49.2575597 49.1916807,49.7932975 49.8647071,50.197628 C50.5377335,50.6019585 51.3564149,50.8041237 52.3207512,50.8041237 Z M52.3207512,47.7109956 C51.8586734,47.7109956 51.4920247,47.5644258 51.2208051,47.2712862 C50.9495855,46.9781466 50.8139757,46.5384372 50.8139757,45.9521581 L50.8139757,45.9521581 L50.8139757,39.9175258 C50.8139757,39.3312466 50.9495855,38.8915372 51.2208051,38.5983976 C51.4920247,38.305258 51.8586734,38.1586882 52.3207512,38.1586882 C52.782829,38.1586882 53.1494777,38.305258 53.4206973,38.5983976 C53.6919169,38.8915372 53.8275267,39.3312466 53.8275267,39.9175258 L53.8275267,39.9175258 L53.8275267,45.9521581 C53.8275267,46.5384372 53.6919169,46.9781466 53.4206973,47.2712862 C53.1494777,47.5644258 52.782829,47.7109956 52.3207512,47.7109956 Z M63.1996704,50.8041237 C63.8626516,50.8041237 64.475407,50.6828246 65.0379365,50.4402263 C65.600466,50.197628 66.0826342,49.8640554 66.484441,49.4395084 C66.8862478,49.0149614 67.2026707,48.5247107 67.4337096,47.9687563 C67.6647485,47.4128019 67.7802679,46.8113603 67.7802679,46.1644316 C67.7802679,45.254688 67.5642968,44.4157023 67.1323545,43.6474744 C66.7004122,42.8792465 65.9118663,42.2727508 64.7667169,41.8279872 L64.7667169,41.8279872 L62.9585863,41.1001924 C62.3759664,40.8778106 62.0143403,40.6301582 61.8737079,40.3572352 C61.7330756,40.0843121 61.6627594,39.8063349 61.6627594,39.5233036 C61.6627594,39.1189731 61.7933466,38.7601298 62.054521,38.4467737 C62.3156954,38.1334176 62.6873667,37.9767395 63.1695349,37.9767395 C63.5713417,37.9767395 63.9279452,38.1081469 64.2393455,38.3709617 C64.5507458,38.6337765 64.7164911,39.0279987 64.7365814,39.5536283 L64.7365814,39.5536283 L67.6295904,39.5536283 C67.6295904,38.9269161 67.5190935,38.3355828 67.2980998,37.7796284 C67.077106,37.223674 66.7757509,36.7435316 66.3940345,36.3392011 C66.012318,35.9348706 65.5552628,35.6215145 65.0228688,35.3991328 C64.4904747,35.176751 63.9128775,35.0655601 63.2900769,35.0655601 C62.6672764,35.0655601 62.0846565,35.1716969 61.5422173,35.3839704 C60.9997781,35.5962439 60.5276552,35.9045458 60.1258484,36.3088763 C59.7039512,36.7132068 59.3724606,37.1933492 59.1313765,37.7493036 C58.8902924,38.305258 58.7697504,38.9066996 58.7697504,39.5536283 C58.7697504,40.5846711 59.0459926,41.4590357 59.5984769,42.1767223 C60.1509613,42.8944089 60.9093716,43.4352009 61.8737079,43.7990983 L61.8737079,43.7990983 L63.3503479,44.3449444 C63.9329678,44.5673262 64.3347746,44.830141 64.5557684,45.1333889 C64.7767621,45.4366367 64.887259,45.8005341 64.887259,46.2250811 C64.887259,46.7507107 64.7114685,47.1600953 64.3598875,47.4532349 C64.0083066,47.7463745 63.6115224,47.8929443 63.1695349,47.8929443 C62.586915,47.8929443 62.1800856,47.7109956 61.9490467,47.3470982 C61.7180078,46.9832008 61.5723528,46.5889785 61.5120818,46.1644316 L61.5120818,46.1644316 L58.6190728,46.1644316 C58.6391632,46.9326594 58.7797956,47.6048589 59.04097,48.1810298 C59.3021444,48.7572007 59.6436802,49.2373431 60.0655773,49.6214571 C60.9093716,50.4099015 61.9540693,50.8041237 63.1996704,50.8041237 Z M74.7415708,50.622175 L74.7415708,47.7109956 C74.400035,47.7109956 74.1137477,47.7008873 73.8827088,47.6806708 C73.6516698,47.6604543 73.455789,47.5998047 73.2950663,47.4987221 C73.1343436,47.3976395 73.0188241,47.2460156 72.9485079,47.0438503 C72.8781917,46.8416851 72.8430337,46.5586538 72.8430337,46.1947563 L72.8430337,46.1947563 L72.8430337,37.6734917 L74.7415708,37.6734917 L74.7415708,35.2475088 L72.8430337,35.2475088 L72.8430337,30.5774919 L69.7692116,30.5774919 L69.7692116,35.2475088 L68.2323006,35.2475088 L68.2323006,37.6734917 L69.7692116,37.6734917 L69.7692116,47.0135255 C69.7692116,47.417856 69.8345052,47.8373489 69.9650924,48.2720041 C70.0956796,48.7066594 70.3016056,49.0958275 70.5828704,49.4395084 C70.8641352,49.7831893 71.240829,50.0662206 71.712952,50.2886024 C72.185075,50.5109841 72.7727175,50.622175 73.4758794,50.622175 L73.4758794,50.622175 L74.7415708,50.622175 Z M79.0810843,50.8041237 C79.7842462,50.8041237 80.3618434,50.6474457 80.8138761,50.3340895 C81.2659088,50.0207334 81.6526478,49.6214571 81.9740932,49.1362605 L81.9740932,49.1362605 L82.0343643,49.1362605 L82.0343643,50.622175 L85.1081863,50.622175 L85.1081863,35.2475088 L82.0343643,35.2475088 L82.0343643,45.5882606 C82.0343643,46.2756224 81.9238674,46.801252 81.7028736,47.1651495 C81.4818799,47.5290469 81.0800731,47.7109956 80.4974532,47.7109956 C80.0152851,47.7109956 79.6436138,47.5492634 79.3824394,47.225799 C79.1212649,46.9023347 78.9906777,46.4575711 78.9906777,45.8915085 L78.9906777,45.8915085 L78.9906777,35.2475088 L75.9168557,35.2475088 L75.9168557,47.0438503 C75.9168557,47.7312121 76.0072622,48.3124372 76.1880753,48.7875255 C76.3688883,49.2626138 76.6099724,49.6517819 76.9113275,49.9550297 C77.2126826,50.2582776 77.5542184,50.4756052 77.9359349,50.6070126 C78.3176513,50.73842 78.6993678,50.8041237 79.0810843,50.8041237 Z M90.7133912,50.622175 L90.7133912,41.4944146 C90.7133912,40.8677024 90.8138429,40.3420728 91.0147463,39.9175258 C91.2156497,39.4929788 91.4768241,39.1492979 91.7982696,38.8864831 C92.0996247,38.6236683 92.4361379,38.4366654 92.8078092,38.3254745 C93.1794804,38.2142837 93.5260388,38.1586882 93.8474843,38.1586882 C94.1689297,38.1586882 94.48033,38.2193378 94.7816851,38.3406369 L94.7816851,38.3406369 L94.7816851,35.0655601 C93.8977101,35.0655601 93.1543675,35.2272923 92.5516573,35.5507567 C91.9489471,35.8742211 91.3361917,36.3189846 90.7133912,36.8850472 L90.7133912,36.8850472 L90.7133912,35.2475088 L87.6395692,35.2475088 L87.6395692,50.622175 L90.7133912,50.622175 Z M100.326619,50.8041237 C101.029781,50.8041237 101.662627,50.6828246 102.225156,50.4402263 C102.787686,50.197628 103.269854,49.8640554 103.671661,49.4395084 C104.495365,48.6106309 104.907216,47.5189386 104.907216,46.1644316 L104.907216,46.1644316 L101.833394,46.1644316 C101.793214,46.5081125 101.677694,46.8517934 101.486836,47.1954743 C101.295978,47.5391552 100.909239,47.7109956 100.326619,47.7109956 C99.8645411,47.7109956 99.4978924,47.5795882 99.2266728,47.3167734 C98.9554532,47.0539586 98.8198434,46.6799529 98.8198434,46.1947563 L98.8198434,46.1947563 L98.8198434,44.1023462 L104.907216,44.1023462 L104.907216,39.8568762 C104.907216,38.4821526 104.50541,37.339919 103.701796,36.4301755 C103.299989,36.0056285 102.812799,35.6720558 102.240224,35.4294575 C101.667649,35.1868593 101.029781,35.0655601 100.326619,35.0655601 C99.3622826,35.0655601 98.5436013,35.2677254 97.8705749,35.6720558 C97.1975485,36.0763863 96.6802222,36.6121242 96.3185961,37.2792694 C96.0976023,37.6835999 95.9469248,38.14858 95.8665634,38.6742096 C95.7862021,39.1998392 95.7460214,39.7760101 95.7460214,40.4027223 L95.7460214,40.4027223 L95.7460214,45.4669615 C95.7460214,46.0936737 95.7862021,46.6698446 95.8665634,47.1954743 C95.9469248,47.7211039 96.0976023,48.1860839 96.3185961,48.5904144 C96.6802222,49.2575597 97.1975485,49.7932975 97.8705749,50.197628 C98.5436013,50.6019585 99.3622826,50.8041237 100.326619,50.8041237 Z M101.833394,41.6763633 L98.8198434,41.6763633 L98.8198434,39.9175258 C98.8198434,39.3312466 98.9554532,38.8915372 99.2266728,38.5983976 C99.4978924,38.305258 99.8645411,38.1586882 100.326619,38.1586882 C100.788697,38.1586882 101.155345,38.305258 101.426565,38.5983976 C101.697785,38.8915372 101.833394,39.3312466 101.833394,39.9175258 L101.833394,39.9175258 L101.833394,41.6763633 Z" id="Posture" stroke="#515294" stroke-width="0.950103131" fill="#D8BFD8" fill-rule="nonzero"></path>
                    <path d="M3.07382204,75.6943399 L3.07382204,67.2640496 L4.64086857,67.2640496 C5.78601796,67.2640496 6.7101736,67.0669385 7.41333551,66.6727163 C8.11649741,66.2784941 8.67902693,65.7275938 9.10092408,65.0200155 C9.4625502,64.4337363 9.6986117,63.8070241 9.80910857,63.1398788 C9.91960544,62.4727335 9.97485387,61.6539643 9.97485387,60.6835712 C9.97485387,59.3897137 9.87440217,58.3637251 9.67349877,57.6056055 C9.47259537,56.8474859 9.11096925,56.1853947 8.5886204,55.6193321 C8.06627156,55.0532694 7.4836517,54.6590472 6.84076081,54.4366654 C6.19786993,54.2142837 5.45452734,54.1030928 4.61073306,54.1030928 L4.61073306,54.1030928 L0,54.1030928 L0,75.6943399 L3.07382204,75.6943399 Z M4.55046204,64.3528702 L3.07382204,64.3528702 L3.07382204,57.0142722 L4.67100408,57.0142722 C5.27371428,57.0142722 5.73579211,57.1052465 6.05723755,57.2871952 C6.37868299,57.469144 6.61976707,57.7319588 6.78048979,58.0756397 C6.94121251,58.4193206 7.03161904,58.8185969 7.05170938,59.2734687 C7.07179972,59.7283405 7.08184489,60.2084829 7.08184489,60.713896 C7.08184489,61.2597421 7.06677714,61.755047 7.03664163,62.1998105 C7.00650612,62.644574 6.911077,63.0185797 6.75035428,63.3218275 C6.58963156,63.6452919 6.33850231,63.8979984 5.99696653,64.0799472 C5.65543075,64.2618959 5.17326258,64.3528702 4.55046204,64.3528702 L4.55046204,64.3528702 Z M16.0320914,75.8762887 C16.9964277,75.8762887 17.8151091,75.6741234 18.4881355,75.269793 C19.1611619,74.8654625 19.6784882,74.3297246 20.0401143,73.6625793 C20.261108,73.2582489 20.4117856,72.7932688 20.4921469,72.2676392 C20.5725083,71.7420096 20.612689,71.1658387 20.612689,70.5391264 L20.612689,70.5391264 L20.612689,65.4748873 C20.612689,64.8481751 20.5725083,64.2720041 20.4921469,63.7463745 C20.4117856,63.2207449 20.261108,62.7557649 20.0401143,62.3514344 C19.6784882,61.6842891 19.1611619,61.1485512 18.4881355,60.7442208 C17.8151091,60.3398903 16.9964277,60.1377251 16.0320914,60.1377251 C15.0677551,60.1377251 14.2490737,60.3398903 13.5760473,60.7442208 C12.9030209,61.1485512 12.3856947,61.6842891 12.0240686,62.3514344 C11.8030748,62.7557649 11.6523973,63.2207449 11.5720359,63.7463745 C11.4916746,64.2720041 11.4514939,64.8481751 11.4514939,65.4748873 L11.4514939,65.4748873 L11.4514939,70.5391264 C11.4514939,71.1658387 11.4916746,71.7420096 11.5720359,72.2676392 C11.6523973,72.7932688 11.8030748,73.2582489 12.0240686,73.6625793 C12.3856947,74.3297246 12.9030209,74.8654625 13.5760473,75.269793 C14.2490737,75.6741234 15.0677551,75.8762887 16.0320914,75.8762887 Z M16.0320914,72.7831606 C15.5700136,72.7831606 15.2033649,72.6365908 14.9321453,72.3434512 C14.6609257,72.0503116 14.5253159,71.6106022 14.5253159,71.024323 L14.5253159,71.024323 L14.5253159,64.9896907 C14.5253159,64.4034115 14.6609257,63.9637022 14.9321453,63.6705626 C15.2033649,63.377423 15.5700136,63.2308532 16.0320914,63.2308532 C16.4941692,63.2308532 16.860818,63.377423 17.1320375,63.6705626 C17.4032571,63.9637022 17.5388669,64.4034115 17.5388669,64.9896907 L17.5388669,64.9896907 L17.5388669,71.024323 C17.5388669,71.6106022 17.4032571,72.0503116 17.1320375,72.3434512 C16.860818,72.6365908 16.4941692,72.7831606 16.0320914,72.7831606 Z M26.9110106,75.8762887 C27.5739918,75.8762887 28.1867472,75.7549895 28.7492767,75.5123912 C29.3118062,75.269793 29.7939744,74.9362203 30.1957812,74.5116733 C30.597588,74.0871263 30.9140109,73.5968756 31.1450498,73.0409212 C31.3760887,72.4849668 31.4916081,71.8835253 31.4916081,71.2365965 C31.4916081,70.3268529 31.275637,69.4878672 30.8436947,68.7196393 C30.4117524,67.9514114 29.6232065,67.3449157 28.4780571,66.9001522 L28.4780571,66.9001522 L26.6699265,66.1723574 C26.0873067,65.9499756 25.7256805,65.7023232 25.5850482,65.4294001 C25.4444158,65.156477 25.3740996,64.8784998 25.3740996,64.5954685 C25.3740996,64.191138 25.5046868,63.8322947 25.7658612,63.5189386 C26.0270356,63.2055825 26.3987069,63.0489045 26.8808751,63.0489045 C27.2826819,63.0489045 27.6392854,63.1803119 27.9506857,63.4431267 C28.262086,63.7059415 28.4278313,64.1001637 28.4479216,64.6257933 L28.4479216,64.6257933 L31.3409306,64.6257933 C31.3409306,63.9990811 31.2304337,63.4077478 31.00944,62.8517934 C30.7884462,62.295839 30.4870911,61.8156965 30.1053747,61.4113661 C29.7236582,61.0070356 29.266603,60.6936795 28.734209,60.4712977 C28.201815,60.2489159 27.6242177,60.1377251 27.0014171,60.1377251 C26.3786166,60.1377251 25.7959967,60.2438618 25.2535575,60.4561353 C24.7111184,60.6684088 24.2389954,60.9767108 23.8371886,61.3810413 C23.4152914,61.7853717 23.0838008,62.2655142 22.8427167,62.8214686 C22.6016326,63.377423 22.4810906,63.9788645 22.4810906,64.6257933 C22.4810906,65.656836 22.7573328,66.5312006 23.3098171,67.2488872 C23.8623015,67.9665738 24.6207118,68.5073658 25.5850482,68.8712632 L25.5850482,68.8712632 L27.0616881,69.4171094 C27.644308,69.6394911 28.0461148,69.9023059 28.2671086,70.2055538 C28.4881023,70.5088017 28.5985992,70.8726991 28.5985992,71.2972461 C28.5985992,71.8228757 28.4228087,72.2322603 28.0712277,72.5253999 C27.7196468,72.8185395 27.3228626,72.9651093 26.8808751,72.9651093 C26.2982552,72.9651093 25.8914258,72.7831606 25.6603869,72.4192631 C25.429348,72.0553657 25.283693,71.6611435 25.223422,71.2365965 L25.223422,71.2365965 L22.3304131,71.2365965 C22.3505034,72.0048244 22.4911358,72.6770238 22.7523102,73.2531947 C23.0134846,73.8293656 23.3550204,74.3095081 23.7769175,74.693622 C24.6207118,75.4820665 25.6654095,75.8762887 26.9110106,75.8762887 Z M38.452911,75.6943399 L38.452911,72.7831606 C38.1113752,72.7831606 37.8250879,72.7730523 37.594049,72.7528358 C37.36301,72.7326192 37.1671292,72.6719697 37.0064065,72.5708871 C36.8456838,72.4698044 36.7301643,72.3181805 36.6598481,72.1160153 C36.589532,71.91385 36.5543739,71.6308187 36.5543739,71.2669213 L36.5543739,71.2669213 L36.5543739,62.7456566 L38.452911,62.7456566 L38.452911,60.3196738 L36.5543739,60.3196738 L36.5543739,55.6496568 L33.4805518,55.6496568 L33.4805518,60.3196738 L31.9436408,60.3196738 L31.9436408,62.7456566 L33.4805518,62.7456566 L33.4805518,72.0856905 C33.4805518,72.490021 33.5458454,72.9095138 33.6764326,73.3441691 C33.8070198,73.7788243 34.0129458,74.1679924 34.2942106,74.5116733 C34.5754754,74.8553542 34.9521692,75.1383855 35.4242922,75.3607673 C35.8964152,75.5831491 36.4840577,75.6943399 37.1872196,75.6943399 L37.1872196,75.6943399 L38.452911,75.6943399 Z M42.7924245,75.8762887 C43.4955864,75.8762887 44.0731837,75.7196106 44.5252163,75.4062545 C44.977249,75.0928984 45.363988,74.693622 45.6854334,74.2084255 L45.6854334,74.2084255 L45.7457045,74.2084255 L45.7457045,75.6943399 L48.8195265,75.6943399 L48.8195265,60.3196738 L45.7457045,60.3196738 L45.7457045,70.6604256 C45.7457045,71.3477874 45.6352076,71.873417 45.4142139,72.2373144 C45.1932201,72.6012118 44.7914133,72.7831606 44.2087934,72.7831606 C43.7266253,72.7831606 43.354954,72.6214284 43.0937796,72.297964 C42.8326051,71.9744996 42.7020179,71.5297361 42.7020179,70.9636734 L42.7020179,70.9636734 L42.7020179,60.3196738 L39.6281959,60.3196738 L39.6281959,72.1160153 C39.6281959,72.8033771 39.7186024,73.3846021 39.8994155,73.8596904 C40.0802286,74.3347787 40.3213126,74.7239468 40.6226677,75.0271947 C40.9240228,75.3304425 41.2655586,75.5477702 41.6472751,75.6791776 C42.0289915,75.810585 42.410708,75.8762887 42.7924245,75.8762887 Z M54.4247314,75.6943399 L54.4247314,66.5665796 C54.4247314,65.9398673 54.5251831,65.4142377 54.7260865,64.9896907 C54.9269899,64.5651437 55.1881643,64.2214628 55.5096098,63.958648 C55.8109649,63.6958332 56.1474781,63.5088304 56.5191494,63.3976395 C56.8908207,63.2864486 57.237379,63.2308532 57.5588245,63.2308532 C57.8802699,63.2308532 58.1916702,63.2915027 58.4930253,63.4128019 L58.4930253,63.4128019 L58.4930253,60.1377251 C57.6090503,60.1377251 56.8657077,60.2994573 56.2629975,60.6229216 C55.6602873,60.946386 55.0475319,61.3911495 54.4247314,61.9572122 L54.4247314,61.9572122 L54.4247314,60.3196738 L51.3509094,60.3196738 L51.3509094,75.6943399 L54.4247314,75.6943399 Z M64.0379592,75.8762887 C64.7411211,75.8762887 65.3739668,75.7549895 65.9364963,75.5123912 C66.4990258,75.269793 66.981194,74.9362203 67.3830008,74.5116733 C68.2067047,73.6827959 68.6185567,72.5911036 68.6185567,71.2365965 L68.6185567,71.2365965 L65.5447347,71.2365965 C65.504554,71.5802774 65.3890345,71.9239583 65.1981763,72.2676392 C65.0073181,72.6113201 64.620579,72.7831606 64.0379592,72.7831606 C63.5758813,72.7831606 63.2092326,72.6517532 62.938013,72.3889383 C62.6667934,72.1261235 62.5311836,71.7521179 62.5311836,71.2669213 L62.5311836,71.2669213 L62.5311836,69.1745111 L68.6185567,69.1745111 L68.6185567,64.9290412 C68.6185567,63.5543175 68.2167499,62.412084 67.4131363,61.5023404 C67.0113295,61.0777934 66.5241387,60.7442208 65.951564,60.5016225 C65.3789894,60.2590242 64.7411211,60.1377251 64.0379592,60.1377251 C63.0736228,60.1377251 62.2549415,60.3398903 61.5819151,60.7442208 C60.9088887,61.1485512 60.3915624,61.6842891 60.0299363,62.3514344 C59.8089426,62.7557649 59.658265,63.2207449 59.5779036,63.7463745 C59.4975423,64.2720041 59.4573616,64.8481751 59.4573616,65.4748873 L59.4573616,65.4748873 L59.4573616,70.5391264 C59.4573616,71.1658387 59.4975423,71.7420096 59.5779036,72.2676392 C59.658265,72.7932688 59.8089426,73.2582489 60.0299363,73.6625793 C60.3915624,74.3297246 60.9088887,74.8654625 61.5819151,75.269793 C62.2549415,75.6741234 63.0736228,75.8762887 64.0379592,75.8762887 Z M65.5447347,66.7485283 L62.5311836,66.7485283 L62.5311836,64.9896907 C62.5311836,64.4034115 62.6667934,63.9637022 62.938013,63.6705626 C63.2092326,63.377423 63.5758813,63.2308532 64.0379592,63.2308532 C64.500037,63.2308532 64.8666857,63.377423 65.1379053,63.6705626 C65.4091249,63.9637022 65.5447347,64.4034115 65.5447347,64.9896907 L65.5447347,64.9896907 L65.5447347,66.7485283 Z" id="Posture-Copy-2" fill="#D8BFD8" fill-rule="nonzero"></path>
                    <path d="M3.07382204,75.6943399 L3.07382204,67.2640496 L4.64086857,67.2640496 C5.78601796,67.2640496 6.7101736,67.0669385 7.41333551,66.6727163 C8.11649741,66.2784941 8.67902693,65.7275938 9.10092408,65.0200155 C9.4625502,64.4337363 9.6986117,63.8070241 9.80910857,63.1398788 C9.91960544,62.4727335 9.97485387,61.6539643 9.97485387,60.6835712 C9.97485387,59.3897137 9.87440217,58.3637251 9.67349877,57.6056055 C9.47259537,56.8474859 9.11096925,56.1853947 8.5886204,55.6193321 C8.06627156,55.0532694 7.4836517,54.6590472 6.84076081,54.4366654 C6.19786993,54.2142837 5.45452734,54.1030928 4.61073306,54.1030928 L4.61073306,54.1030928 L0,54.1030928 L0,75.6943399 L3.07382204,75.6943399 Z M4.55046204,64.3528702 L3.07382204,64.3528702 L3.07382204,57.0142722 L4.67100408,57.0142722 C5.27371428,57.0142722 5.73579211,57.1052465 6.05723755,57.2871952 C6.37868299,57.469144 6.61976707,57.7319588 6.78048979,58.0756397 C6.94121251,58.4193206 7.03161904,58.8185969 7.05170938,59.2734687 C7.07179972,59.7283405 7.08184489,60.2084829 7.08184489,60.713896 C7.08184489,61.2597421 7.06677714,61.755047 7.03664163,62.1998105 C7.00650612,62.644574 6.911077,63.0185797 6.75035428,63.3218275 C6.58963156,63.6452919 6.33850231,63.8979984 5.99696653,64.0799472 C5.65543075,64.2618959 5.17326258,64.3528702 4.55046204,64.3528702 L4.55046204,64.3528702 Z M16.0320914,75.8762887 C16.9964277,75.8762887 17.8151091,75.6741234 18.4881355,75.269793 C19.1611619,74.8654625 19.6784882,74.3297246 20.0401143,73.6625793 C20.261108,73.2582489 20.4117856,72.7932688 20.4921469,72.2676392 C20.5725083,71.7420096 20.612689,71.1658387 20.612689,70.5391264 L20.612689,70.5391264 L20.612689,65.4748873 C20.612689,64.8481751 20.5725083,64.2720041 20.4921469,63.7463745 C20.4117856,63.2207449 20.261108,62.7557649 20.0401143,62.3514344 C19.6784882,61.6842891 19.1611619,61.1485512 18.4881355,60.7442208 C17.8151091,60.3398903 16.9964277,60.1377251 16.0320914,60.1377251 C15.0677551,60.1377251 14.2490737,60.3398903 13.5760473,60.7442208 C12.9030209,61.1485512 12.3856947,61.6842891 12.0240686,62.3514344 C11.8030748,62.7557649 11.6523973,63.2207449 11.5720359,63.7463745 C11.4916746,64.2720041 11.4514939,64.8481751 11.4514939,65.4748873 L11.4514939,65.4748873 L11.4514939,70.5391264 C11.4514939,71.1658387 11.4916746,71.7420096 11.5720359,72.2676392 C11.6523973,72.7932688 11.8030748,73.2582489 12.0240686,73.6625793 C12.3856947,74.3297246 12.9030209,74.8654625 13.5760473,75.269793 C14.2490737,75.6741234 15.0677551,75.8762887 16.0320914,75.8762887 Z M16.0320914,72.7831606 C15.5700136,72.7831606 15.2033649,72.6365908 14.9321453,72.3434512 C14.6609257,72.0503116 14.5253159,71.6106022 14.5253159,71.024323 L14.5253159,71.024323 L14.5253159,64.9896907 C14.5253159,64.4034115 14.6609257,63.9637022 14.9321453,63.6705626 C15.2033649,63.377423 15.5700136,63.2308532 16.0320914,63.2308532 C16.4941692,63.2308532 16.860818,63.377423 17.1320375,63.6705626 C17.4032571,63.9637022 17.5388669,64.4034115 17.5388669,64.9896907 L17.5388669,64.9896907 L17.5388669,71.024323 C17.5388669,71.6106022 17.4032571,72.0503116 17.1320375,72.3434512 C16.860818,72.6365908 16.4941692,72.7831606 16.0320914,72.7831606 Z M26.9110106,75.8762887 C27.5739918,75.8762887 28.1867472,75.7549895 28.7492767,75.5123912 C29.3118062,75.269793 29.7939744,74.9362203 30.1957812,74.5116733 C30.597588,74.0871263 30.9140109,73.5968756 31.1450498,73.0409212 C31.3760887,72.4849668 31.4916081,71.8835253 31.4916081,71.2365965 C31.4916081,70.3268529 31.275637,69.4878672 30.8436947,68.7196393 C30.4117524,67.9514114 29.6232065,67.3449157 28.4780571,66.9001522 L28.4780571,66.9001522 L26.6699265,66.1723574 C26.0873067,65.9499756 25.7256805,65.7023232 25.5850482,65.4294001 C25.4444158,65.156477 25.3740996,64.8784998 25.3740996,64.5954685 C25.3740996,64.191138 25.5046868,63.8322947 25.7658612,63.5189386 C26.0270356,63.2055825 26.3987069,63.0489045 26.8808751,63.0489045 C27.2826819,63.0489045 27.6392854,63.1803119 27.9506857,63.4431267 C28.262086,63.7059415 28.4278313,64.1001637 28.4479216,64.6257933 L28.4479216,64.6257933 L31.3409306,64.6257933 C31.3409306,63.9990811 31.2304337,63.4077478 31.00944,62.8517934 C30.7884462,62.295839 30.4870911,61.8156965 30.1053747,61.4113661 C29.7236582,61.0070356 29.266603,60.6936795 28.734209,60.4712977 C28.201815,60.2489159 27.6242177,60.1377251 27.0014171,60.1377251 C26.3786166,60.1377251 25.7959967,60.2438618 25.2535575,60.4561353 C24.7111184,60.6684088 24.2389954,60.9767108 23.8371886,61.3810413 C23.4152914,61.7853717 23.0838008,62.2655142 22.8427167,62.8214686 C22.6016326,63.377423 22.4810906,63.9788645 22.4810906,64.6257933 C22.4810906,65.656836 22.7573328,66.5312006 23.3098171,67.2488872 C23.8623015,67.9665738 24.6207118,68.5073658 25.5850482,68.8712632 L25.5850482,68.8712632 L27.0616881,69.4171094 C27.644308,69.6394911 28.0461148,69.9023059 28.2671086,70.2055538 C28.4881023,70.5088017 28.5985992,70.8726991 28.5985992,71.2972461 C28.5985992,71.8228757 28.4228087,72.2322603 28.0712277,72.5253999 C27.7196468,72.8185395 27.3228626,72.9651093 26.8808751,72.9651093 C26.2982552,72.9651093 25.8914258,72.7831606 25.6603869,72.4192631 C25.429348,72.0553657 25.283693,71.6611435 25.223422,71.2365965 L25.223422,71.2365965 L22.3304131,71.2365965 C22.3505034,72.0048244 22.4911358,72.6770238 22.7523102,73.2531947 C23.0134846,73.8293656 23.3550204,74.3095081 23.7769175,74.693622 C24.6207118,75.4820665 25.6654095,75.8762887 26.9110106,75.8762887 Z M38.452911,75.6943399 L38.452911,72.7831606 C38.1113752,72.7831606 37.8250879,72.7730523 37.594049,72.7528358 C37.36301,72.7326192 37.1671292,72.6719697 37.0064065,72.5708871 C36.8456838,72.4698044 36.7301643,72.3181805 36.6598481,72.1160153 C36.589532,71.91385 36.5543739,71.6308187 36.5543739,71.2669213 L36.5543739,71.2669213 L36.5543739,62.7456566 L38.452911,62.7456566 L38.452911,60.3196738 L36.5543739,60.3196738 L36.5543739,55.6496568 L33.4805518,55.6496568 L33.4805518,60.3196738 L31.9436408,60.3196738 L31.9436408,62.7456566 L33.4805518,62.7456566 L33.4805518,72.0856905 C33.4805518,72.490021 33.5458454,72.9095138 33.6764326,73.3441691 C33.8070198,73.7788243 34.0129458,74.1679924 34.2942106,74.5116733 C34.5754754,74.8553542 34.9521692,75.1383855 35.4242922,75.3607673 C35.8964152,75.5831491 36.4840577,75.6943399 37.1872196,75.6943399 L37.1872196,75.6943399 L38.452911,75.6943399 Z M42.7924245,75.8762887 C43.4955864,75.8762887 44.0731837,75.7196106 44.5252163,75.4062545 C44.977249,75.0928984 45.363988,74.693622 45.6854334,74.2084255 L45.6854334,74.2084255 L45.7457045,74.2084255 L45.7457045,75.6943399 L48.8195265,75.6943399 L48.8195265,60.3196738 L45.7457045,60.3196738 L45.7457045,70.6604256 C45.7457045,71.3477874 45.6352076,71.873417 45.4142139,72.2373144 C45.1932201,72.6012118 44.7914133,72.7831606 44.2087934,72.7831606 C43.7266253,72.7831606 43.354954,72.6214284 43.0937796,72.297964 C42.8326051,71.9744996 42.7020179,71.5297361 42.7020179,70.9636734 L42.7020179,70.9636734 L42.7020179,60.3196738 L39.6281959,60.3196738 L39.6281959,72.1160153 C39.6281959,72.8033771 39.7186024,73.3846021 39.8994155,73.8596904 C40.0802286,74.3347787 40.3213126,74.7239468 40.6226677,75.0271947 C40.9240228,75.3304425 41.2655586,75.5477702 41.6472751,75.6791776 C42.0289915,75.810585 42.410708,75.8762887 42.7924245,75.8762887 Z M54.4247314,75.6943399 L54.4247314,66.5665796 C54.4247314,65.9398673 54.5251831,65.4142377 54.7260865,64.9896907 C54.9269899,64.5651437 55.1881643,64.2214628 55.5096098,63.958648 C55.8109649,63.6958332 56.1474781,63.5088304 56.5191494,63.3976395 C56.8908207,63.2864486 57.237379,63.2308532 57.5588245,63.2308532 C57.8802699,63.2308532 58.1916702,63.2915027 58.4930253,63.4128019 L58.4930253,63.4128019 L58.4930253,60.1377251 C57.6090503,60.1377251 56.8657077,60.2994573 56.2629975,60.6229216 C55.6602873,60.946386 55.0475319,61.3911495 54.4247314,61.9572122 L54.4247314,61.9572122 L54.4247314,60.3196738 L51.3509094,60.3196738 L51.3509094,75.6943399 L54.4247314,75.6943399 Z M64.0379592,75.8762887 C64.7411211,75.8762887 65.3739668,75.7549895 65.9364963,75.5123912 C66.4990258,75.269793 66.981194,74.9362203 67.3830008,74.5116733 C68.2067047,73.6827959 68.6185567,72.5911036 68.6185567,71.2365965 L68.6185567,71.2365965 L65.5447347,71.2365965 C65.504554,71.5802774 65.3890345,71.9239583 65.1981763,72.2676392 C65.0073181,72.6113201 64.620579,72.7831606 64.0379592,72.7831606 C63.5758813,72.7831606 63.2092326,72.6517532 62.938013,72.3889383 C62.6667934,72.1261235 62.5311836,71.7521179 62.5311836,71.2669213 L62.5311836,71.2669213 L62.5311836,69.1745111 L68.6185567,69.1745111 L68.6185567,64.9290412 C68.6185567,63.5543175 68.2167499,62.412084 67.4131363,61.5023404 C67.0113295,61.0777934 66.5241387,60.7442208 65.951564,60.5016225 C65.3789894,60.2590242 64.7411211,60.1377251 64.0379592,60.1377251 C63.0736228,60.1377251 62.2549415,60.3398903 61.5819151,60.7442208 C60.9088887,61.1485512 60.3915624,61.6842891 60.0299363,62.3514344 C59.8089426,62.7557649 59.658265,63.2207449 59.5779036,63.7463745 C59.4975423,64.2720041 59.4573616,64.8481751 59.4573616,65.4748873 L59.4573616,65.4748873 L59.4573616,70.5391264 C59.4573616,71.1658387 59.4975423,71.7420096 59.5779036,72.2676392 C59.658265,72.7932688 59.8089426,73.2582489 60.0299363,73.6625793 C60.3915624,74.3297246 60.9088887,74.8654625 61.5819151,75.269793 C62.2549415,75.6741234 63.0736228,75.8762887 64.0379592,75.8762887 Z M65.5447347,66.7485283 L62.5311836,66.7485283 L62.5311836,64.9896907 C62.5311836,64.4034115 62.6667934,63.9637022 62.938013,63.6705626 C63.2092326,63.377423 63.5758813,63.2308532 64.0379592,63.2308532 C64.500037,63.2308532 64.8666857,63.377423 65.1379053,63.6705626 C65.4091249,63.9637022 65.5447347,64.4034115 65.5447347,64.9896907 L65.5447347,64.9896907 L65.5447347,66.7485283 Z" id="Posture-Copy-3" fill="#515294" fill-rule="nonzero"></path>
                </g>
            </g>
        </g>
    </g>
</svg>